<svg width="46" height="32" viewBox="0 0 46 32" fill="none" xmlns="http://www.w3.org/2000/svg">
<path d="M4 0.5H42C43.933 0.5 45.5 2.067 45.5 4V28C45.5 29.933 43.933 31.5 42 31.5H4C2.067 31.5 0.5 29.933 0.5 28V4C0.5 2.067 2.067 0.5 4 0.5Z" fill="white"/>
<path d="M4 0.5H42C43.933 0.5 45.5 2.067 45.5 4V28C45.5 29.933 43.933 31.5 42 31.5H4C2.067 31.5 0.5 29.933 0.5 28V4C0.5 2.067 2.067 0.5 4 0.5Z" stroke="#E9EAEB"/>
<path d="M25.6768 15.6077C25.6768 20.5457 21.7197 24.5487 16.8384 24.5487C11.9571 24.5487 8 20.5457 8 15.6077C8 10.6697 11.9571 6.66669 16.8384 6.66669C21.7197 6.66669 25.6768 10.6697 25.6768 15.6077Z" fill="#ED0006"/>
<path d="M37.1426 15.6077C37.1426 20.5457 33.1855 24.5487 28.3042 24.5487C23.4229 24.5487 19.4658 20.5457 19.4658 15.6077C19.4658 10.6697 23.4229 6.66669 28.3042 6.66669C33.1855 6.66669 37.1426 10.6697 37.1426 15.6077Z" fill="#0099DF"/>
<path fill-rule="evenodd" clip-rule="evenodd" d="M22.5712 8.80261C24.4715 10.4426 25.6765 12.8828 25.6765 15.6077C25.6765 18.3326 24.4715 20.7728 22.5712 22.4128C20.6708 20.7728 19.4658 18.3326 19.4658 15.6077C19.4658 12.8828 20.6708 10.4426 22.5712 8.80261Z" fill="#6C6BBD"/>
</svg>
