<svg width="34" height="24" viewBox="0 0 34 24" fill="none" xmlns="http://www.w3.org/2000/svg">
<path d="M4 0.5H30C31.933 0.5 33.5 2.067 33.5 4V20C33.5 21.933 31.933 23.5 30 23.5H4C2.067 23.5 0.5 21.933 0.5 20V4C0.5 2.067 2.067 0.5 4 0.5Z" fill="white"/>
<path d="M4 0.5H30C31.933 0.5 33.5 2.067 33.5 4V20C33.5 21.933 31.933 23.5 30 23.5H4C2.067 23.5 0.5 21.933 0.5 20V4C0.5 2.067 2.067 0.5 4 0.5Z" stroke="#E9EAEB"/>
<path fill-rule="evenodd" clip-rule="evenodd" d="M9.71387 11.5673C9.71387 15.4393 12.7814 18.5971 16.5793 18.5971C17.0454 18.5971 17.5116 18.5551 18.0472 18.5068C18.6445 18.453 19.3282 18.3914 20.1946 18.3715C21.5092 18.3715 22.9334 18.8602 24.5037 20.2887C24.6498 20.4391 24.8689 20.2512 24.7228 20.0632C23.1526 18.0708 21.7283 17.6949 20.3041 17.3565C18.5513 16.943 17.6383 15.9656 17.0175 14.8379C16.9079 14.6123 16.8349 14.6499 16.8349 14.9506C16.7984 15.4018 16.8349 15.8153 16.9079 16.2288H16.6888C14.2056 16.2288 12.1606 14.1236 12.1606 11.5673C12.1606 9.01107 14.2056 6.9059 16.6888 6.9059C19.1721 6.9059 21.2171 9.01107 21.2171 11.5673C21.2171 11.7177 21.2171 11.9057 21.1806 12.0936C20.8154 12.0184 20.1946 12.0184 19.7198 12.056C19.5373 12.056 19.5373 12.1312 19.6833 12.1688C21.1441 12.4696 22.1666 13.4094 22.4222 15.1386C22.4222 15.2138 22.4587 15.2138 22.4952 15.1762C23.0795 14.1236 23.4447 12.8831 23.4447 11.5673C23.4447 7.65775 20.3772 4.5 16.5793 4.5C12.7814 4.5 9.71387 7.69534 9.71387 11.5673ZM21.5457 14.462C21.8013 14.5747 21.9109 14.9507 21.9109 15.1386C21.9474 15.4394 21.8744 15.5897 21.7648 15.5897C21.6553 15.5897 21.5092 15.4769 21.3631 15.2138C21.217 14.9507 21.144 14.6875 21.217 14.5371C21.3266 14.462 21.4362 14.4244 21.5457 14.462ZM20.0485 15.6273C20.1945 15.6273 20.3771 15.7025 20.5597 15.8529C20.8519 16.116 20.9614 16.4168 20.8154 16.6423C20.7423 16.7551 20.5597 16.8303 20.4137 16.8303C20.2311 16.8303 20.0485 16.7551 19.9389 16.6423C19.6468 16.3792 19.5737 16.0032 19.7563 15.7777C19.7928 15.7025 19.9024 15.6273 20.0485 15.6273Z" fill="#F28A1A"/>
</svg>
