<svg width="34" height="24" viewBox="0 0 34 24" fill="none" xmlns="http://www.w3.org/2000/svg">
<path d="M0 4C0 1.79086 1.79086 0 4 0H30C32.2091 0 34 1.79086 34 4V20C34 22.2091 32.2091 24 30 24H4C1.79086 24 0 22.2091 0 20V4Z" fill="#F884A1"/>
<path fill-rule="evenodd" clip-rule="evenodd" d="M19.7844 9.43558L20.7242 4.6181C20.8373 4.07764 20.5263 3.53303 20.0053 3.37505C19.4238 3.22539 18.8382 3.57461 18.6888 4.16495L17.8372 7.16623L17.1659 4.21068C17.1134 3.93629 16.9519 3.69101 16.7217 3.53303C16.4915 3.37505 16.2047 3.32101 15.9342 3.37921C15.4011 3.49562 15.0538 4.13585 15.187 4.71787L15.5831 8.06573C15.239 7.71267 14.8372 7.6039 14.3715 7.88161L14.3109 7.92318C13.8866 8.22069 13.8002 8.82863 14.0729 9.38237C13.8472 9.39544 13.6265 9.49233 13.4587 9.66926L13.4183 9.71499C13.0266 10.1307 13.1033 10.8333 13.592 11.3364L13.989 11.7436C14.0336 13.6263 15.5213 14.9449 17.2753 14.9449C17.2961 14.9449 17.3161 14.942 17.3351 14.9365C19.711 14.912 20.7552 13.4553 20.9342 11.2449C20.9907 10.5464 20.8655 10.0684 20.603 9.7815C20.4576 9.62352 20.3042 9.54869 20.187 9.53206L19.7844 9.43558ZM19.3591 9.33369L20.2961 4.52664C20.3607 4.21068 20.179 3.89888 19.8882 3.80742C19.549 3.72011 19.2017 3.93214 19.1088 4.28551L18.0224 8.11857C17.9901 8.23913 17.8689 8.30565 17.7518 8.27239C17.6588 8.24598 17.5989 8.16192 17.5944 8.06806L16.7378 4.30214C16.7055 4.14 16.6126 3.99865 16.4794 3.90719C16.3461 3.81573 16.1805 3.78663 16.023 3.81989C15.7403 3.88225 15.5303 4.27304 15.6151 4.62225L15.6192 4.6472L16.1086 8.8012L16.4166 9.27424C16.551 9.08209 16.7449 8.96236 16.9764 8.90846C17.1702 8.86689 17.3681 8.87104 17.5579 8.9043C17.6053 8.91126 17.6413 8.92114 17.6612 8.92661C17.6651 8.92767 17.6684 8.92857 17.671 8.92925L19.3591 9.33369ZM16.223 9.7847L15.7409 9.04409C15.7245 9.0262 15.7109 9.00552 15.701 8.98283L15.474 8.63408C15.1954 8.21419 14.9248 8.06869 14.6017 8.25992L14.5573 8.29318C14.3069 8.47195 14.2746 8.896 14.533 9.30341L15.4861 10.7626C15.6558 11.0204 15.995 11.0869 16.2454 10.9123L16.2939 10.8832C16.3608 10.8381 16.4163 10.7761 16.4561 10.7048C16.2167 10.4525 16.1574 10.1405 16.223 9.7847ZM16.8969 10.5116C16.872 10.4724 16.8348 10.4411 16.789 10.4237C16.6069 10.2434 16.5997 10.0182 16.6856 9.7233C16.7502 9.50712 16.8754 9.39487 17.0733 9.34914C17.2026 9.32004 17.3439 9.32419 17.4812 9.34914C17.4966 9.35231 17.5103 9.35488 17.522 9.35708C17.5408 9.36063 17.5545 9.3632 17.562 9.36577L20.1063 9.97689L20.1547 9.99352C20.1951 10.0102 20.2395 10.0434 20.284 10.0891C20.4536 10.2762 20.5505 10.6296 20.5021 11.2116C20.3365 13.2487 19.4157 14.5125 17.2268 14.4918C17.2145 14.4918 17.2025 14.4928 17.1908 14.4948C15.8641 14.4583 14.7418 13.5666 14.4812 12.2486L14.8076 12.5835C15.1993 12.9702 15.8172 12.9619 16.1969 12.5628L16.2413 12.517C16.5426 12.1934 16.5942 11.7167 16.3984 11.3396C16.4274 11.3235 16.4558 11.3058 16.4837 11.2865L16.5321 11.2532C16.6419 11.1763 16.7341 11.0771 16.8048 10.9629C16.9523 11.042 17.1296 11.1114 17.3399 11.17L17.9497 11.3156C17.4974 11.5775 17.2147 12.0639 17.1824 12.808C17.1743 12.9328 17.2672 13.0367 17.3883 13.045C17.5095 13.0492 17.6104 12.9577 17.6185 12.833C17.6508 12.1595 17.9053 11.7978 18.3132 11.6398C18.5312 11.5567 18.7695 11.5401 18.9795 11.5608L19.032 11.5692C19.3107 11.6232 19.3995 11.195 19.1209 11.1285L17.4449 10.7418C17.203 10.6738 17.0242 10.5983 16.8969 10.5116ZM13.7737 9.98522C13.9414 9.80464 14.2143 9.78287 14.4111 9.92365L15.1227 11.0162C15.3179 11.3097 15.634 11.4653 15.9535 11.4595C16.1278 11.6772 16.1185 11.9993 15.9222 12.2052L15.8819 12.251C15.6719 12.4713 15.3286 12.4755 15.1145 12.2593L13.903 11.0246C13.5678 10.6795 13.5233 10.2554 13.7334 10.0309L13.7737 9.98522ZM12.1583 19.1646C12.1583 19.8589 11.6333 20.3328 10.9468 20.3328C10.4662 20.3328 10.0542 20.1083 9.7998 19.7508L10.2723 19.2644C10.4137 19.4515 10.6479 19.6552 10.9548 19.6552C11.2416 19.6552 11.4395 19.4806 11.4395 19.1979C11.4395 18.8985 11.2052 18.8237 10.8377 18.7156C10.1633 18.5119 9.88865 18.1502 9.88865 17.6804C9.88865 17.0901 10.3248 16.5829 11.0114 16.5829C11.4435 16.5829 11.8433 16.7908 12.021 17.194L11.4516 17.564C11.3425 17.3811 11.1931 17.2605 10.9912 17.2605C10.7529 17.2605 10.6035 17.4268 10.6035 17.6389C10.6035 17.8925 10.8216 17.9714 11.1689 18.0754C11.7141 18.2417 12.1583 18.5202 12.1583 19.1646ZM12.4045 19.0066C12.4045 19.7342 12.9942 20.3328 13.7211 20.3328C14.4481 20.3328 15.0377 19.7342 15.0377 19.0066C15.0377 18.2791 14.4481 17.6804 13.7211 17.6804C12.9942 17.6804 12.4045 18.2791 12.4045 19.0066ZM13.7209 19.6676C14.0723 19.6676 14.351 19.3808 14.351 19.0066C14.351 18.6325 14.0723 18.3456 13.7209 18.3456C13.3655 18.3456 13.0909 18.6325 13.0909 19.0066C13.0909 19.3849 13.3696 19.6676 13.7209 19.6676ZM16.7379 16.6286V17.2938C16.3542 17.2772 16.0756 17.4767 16.0756 17.9174V18.1876C16.229 18.0213 16.4471 17.9382 16.7177 17.9382V18.6117C16.3381 18.62 16.0756 18.8694 16.0756 19.2187V20.2663H15.389V17.8758C15.389 17.2024 15.8009 16.6286 16.6369 16.6286H16.7379ZM18.2362 20.3328C17.5093 20.3328 16.9196 19.7342 16.9196 19.0066C16.9196 18.2791 17.5093 17.6804 18.2362 17.6804C18.9631 17.6804 19.5528 18.2791 19.5528 19.0066C19.5528 19.7342 18.9631 20.3328 18.2362 20.3328ZM18.8662 19.0066C18.8662 19.3808 18.5915 19.6676 18.2362 19.6676C17.8848 19.6676 17.6061 19.3849 17.6061 19.0066C17.6061 18.6325 17.8848 18.3456 18.2362 18.3456C18.5875 18.3456 18.8662 18.6325 18.8662 19.0066ZM20.5907 18.038V17.7511H19.9243V20.2663H20.6108V19.1189C20.6108 18.7031 20.8491 18.4703 21.2611 18.4703V17.7137C20.9501 17.7012 20.728 17.8093 20.5907 18.038ZM22.3434 18.3664V18.9817C22.3434 19.4224 22.6221 19.6178 23.0058 19.6053V20.2705H22.9048C22.0648 20.2705 21.6569 19.6968 21.6569 19.0233V16.9446H22.3434V17.3395C22.3434 17.6805 22.614 17.9382 22.9856 17.9465V18.6159C22.7109 18.6159 22.4969 18.5327 22.3434 18.3664ZM23.8256 20.3079C24.076 20.3079 24.286 20.0959 24.286 19.834C24.286 19.5762 24.08 19.36 23.8256 19.36C23.5712 19.36 23.3652 19.572 23.3652 19.834C23.3652 20.0959 23.5712 20.3079 23.8256 20.3079Z" fill="white"/>
</svg>
