<svg width="34" height="24" viewBox="0 0 34 24" fill="none" xmlns="http://www.w3.org/2000/svg">
<path d="M4 0.5H30C31.933 0.5 33.5 2.067 33.5 4V20C33.5 21.933 31.933 23.5 30 23.5H4C2.067 23.5 0.5 21.933 0.5 20V4C0.5 2.067 2.067 0.5 4 0.5Z" fill="white"/>
<path d="M4 0.5H30C31.933 0.5 33.5 2.067 33.5 4V20C33.5 21.933 31.933 23.5 30 23.5H4C2.067 23.5 0.5 21.933 0.5 20V4C0.5 2.067 2.067 0.5 4 0.5Z" stroke="#E9EAEB"/>
<path fill-rule="evenodd" clip-rule="evenodd" d="M16.0583 15.528V12.5934H17.573C18.1936 12.5934 18.7175 12.3854 19.1445 11.9752L19.247 11.8712C20.0271 11.022 19.9759 9.69914 19.1445 8.91349C18.7289 8.49755 18.1595 8.27226 17.573 8.28381H15.1416V15.528H16.0583ZM16.0585 11.7037V9.17339H17.5961C17.9264 9.17339 18.2396 9.30048 18.4731 9.53156C18.9686 10.0168 18.98 10.8256 18.5016 11.3282C18.2681 11.5766 17.9378 11.7152 17.5961 11.7037H16.0585ZM23.5233 10.9585C23.1304 10.5945 22.5952 10.4097 21.9176 10.4097C21.0464 10.4097 20.3916 10.7332 19.9588 11.3744L20.7674 11.8886C21.0635 11.4495 21.4678 11.23 21.9802 11.23C22.3048 11.23 22.618 11.3513 22.8628 11.5708C23.102 11.7788 23.2386 12.0792 23.2386 12.3969V12.6107C22.8856 12.4142 22.4414 12.3103 21.8948 12.3103C21.2571 12.3103 20.7446 12.4605 20.3631 12.7666C19.9816 13.0728 19.788 13.4772 19.788 13.9913C19.7766 14.4593 19.9759 14.9041 20.3289 15.2045C20.6877 15.528 21.1432 15.6897 21.6784 15.6897C22.3105 15.6897 22.8116 15.4067 23.1931 14.8405H23.2329V15.528H24.1098V12.472C24.1098 11.8308 23.9162 11.3224 23.5233 10.9585ZM21.0352 14.6153C20.8472 14.4766 20.7333 14.2513 20.7333 14.0087C20.7333 13.7372 20.8586 13.5119 21.1035 13.3328C21.3541 13.1537 21.6673 13.0613 22.0375 13.0613C22.55 13.0555 22.9487 13.171 23.2334 13.4021C23.2334 13.7949 23.0797 14.1358 22.7778 14.4246C22.5045 14.7019 22.1343 14.8579 21.747 14.8579C21.4908 14.8637 21.2402 14.777 21.0352 14.6153ZM26.08 17.7059L29.1434 10.5714H28.1469L26.7291 14.13H26.712L25.26 10.5714H24.2636L26.2736 15.2102L25.1348 17.7059H26.08Z" fill="#3C4043"/>
<path d="M12.8936 11.9579C12.8936 11.6748 12.8708 11.3917 12.8253 11.1144H8.95898V12.7146H11.174C11.0829 13.2288 10.7868 13.6909 10.354 13.9798V15.0196H11.6751C12.4495 14.2975 12.8936 13.2288 12.8936 11.9579Z" fill="#4285F4"/>
<path d="M8.95915 16.0248C10.0638 16.0248 10.9976 15.6551 11.6752 15.0196L10.3542 13.9798C9.98408 14.234 9.51147 14.3784 8.95915 14.3784C7.88866 14.3784 6.9833 13.6447 6.65874 12.6627H5.29785V13.7372C5.99253 15.1409 7.41036 16.0248 8.95915 16.0248Z" fill="#34A853"/>
<path d="M6.65846 12.6627C6.48761 12.1486 6.48761 11.5882 6.65846 11.0683V9.99957H5.29736C4.71078 11.1723 4.71078 12.5587 5.29736 13.7314L6.65846 12.6627Z" fill="#FBBC04"/>
<path d="M8.95915 9.35253C9.54564 9.34098 10.1094 9.56628 10.5307 9.97643L11.7037 8.7864C10.9578 8.08162 9.97839 7.69457 8.95915 7.70612C7.41036 7.70612 5.99253 8.59576 5.29785 9.99954L6.65874 11.074C6.9833 10.0862 7.88866 9.35253 8.95915 9.35253Z" fill="#EA4335"/>
</svg>
