<svg width="58" height="40" viewBox="0 0 58 40" fill="none" xmlns="http://www.w3.org/2000/svg">
<path d="M6 0.5H52C55.0376 0.5 57.5 2.96243 57.5 6V34C57.5 37.0376 55.0376 39.5 52 39.5H6C2.96243 39.5 0.5 37.0376 0.5 34V6C0.5 2.96243 2.96243 0.5 6 0.5Z" fill="white"/>
<path d="M6 0.5H52C55.0376 0.5 57.5 2.96243 57.5 6V34C57.5 37.0376 55.0376 39.5 52 39.5H6C2.96243 39.5 0.5 37.0376 0.5 34V6C0.5 2.96243 2.96243 0.5 6 0.5Z" stroke="#E9EAEB"/>
<path d="M32.096 19.5096C32.096 25.6821 27.1497 30.6858 21.048 30.6858C14.9464 30.6858 10 25.6821 10 19.5096C10 13.3371 14.9464 8.33331 21.048 8.33331C27.1497 8.33331 32.096 13.3371 32.096 19.5096Z" fill="#ED0006"/>
<path d="M46.429 19.5096C46.429 25.6821 41.4827 30.6858 35.381 30.6858C29.2794 30.6858 24.333 25.6821 24.333 19.5096C24.333 13.3371 29.2794 8.33331 35.381 8.33331C41.4827 8.33331 46.429 13.3371 46.429 19.5096Z" fill="#0099DF"/>
<path fill-rule="evenodd" clip-rule="evenodd" d="M28.2147 28.016C30.5901 25.966 32.0964 22.9158 32.0964 19.5096C32.0964 16.1034 30.5901 13.0532 28.2147 11.0032C25.8393 13.0532 24.333 16.1034 24.333 19.5096C24.333 22.9158 25.8393 25.966 28.2147 28.016Z" fill="#6C6BBD"/>
</svg>
