<svg width="34" height="24" viewBox="0 0 34 24" fill="none" xmlns="http://www.w3.org/2000/svg">
<path d="M4 0.5H30C31.933 0.5 33.5 2.067 33.5 4V20C33.5 21.933 31.933 23.5 30 23.5H4C2.067 23.5 0.5 21.933 0.5 20V4C0.5 2.067 2.067 0.5 4 0.5Z" fill="white"/>
<path d="M4 0.5H30C31.933 0.5 33.5 2.067 33.5 4V20C33.5 21.933 31.933 23.5 30 23.5H4C2.067 23.5 0.5 21.933 0.5 20V4C0.5 2.067 2.067 0.5 4 0.5Z" stroke="#E9EAEB"/>
<path fill-rule="evenodd" clip-rule="evenodd" d="M6.18117 7.74278C5.57833 7.74376 5.09059 8.1883 5.08942 8.73765V8.73766V15.3427V15.3427C5.08956 15.4114 5.09732 15.4784 5.11194 15.5431C5.13027 15.6242 5.15941 15.7017 5.19793 15.7743C5.3745 16.1072 5.74813 16.3368 6.18117 16.3376H17.5403V16.3376V7.74279V7.74278H6.18117ZM6.18116 7H27.9209C28.974 7.00016 29.8273 7.77758 29.8276 8.73765V15.3427C29.8273 16.3024 28.974 17.0799 27.9209 17.0803H6.18116C5.12793 17.0799 4.27477 16.3024 4.27441 15.3427V8.73765C4.27477 7.77758 5.12793 7.00016 6.18116 7Z" fill="#0F3365"/>
<path fill-rule="evenodd" clip-rule="evenodd" d="M19.399 14.2623H18.4453V10.7321H19.3249V11.1861H19.3355C19.5262 10.8336 19.9291 10.6742 20.3636 10.6742C21.1267 10.6742 21.545 11.3359 21.545 11.9442C21.545 12.688 21.1053 13.3061 20.284 13.3061C19.9502 13.3061 19.5898 13.1952 19.4096 12.8958H19.399V14.2623ZM19.9822 12.6397C20.3423 12.6397 20.5596 12.3645 20.5596 11.9636C20.5596 11.6302 20.3529 11.3406 19.9822 11.3406C19.6323 11.3406 19.3989 11.6208 19.3989 11.9973C19.3989 12.3645 19.6641 12.6397 19.9822 12.6397ZM25.1995 14.2623C25.3957 14.301 25.5916 14.3204 25.793 14.3204C26.6179 14.3204 26.8485 13.7744 27.0986 13.1819C27.1137 13.1462 27.1288 13.1104 27.1441 13.0746L28.1564 10.7321H27.2025L26.6354 12.374H26.6249L26.0313 10.7321H25.0037L26.1213 13.3061C26.0528 13.5282 25.8726 13.6539 25.6397 13.6539C25.5069 13.6539 25.3902 13.6396 25.2633 13.6006L25.1995 14.2623ZM24.844 13.33C24.8017 13.132 24.7909 12.9341 24.7909 12.736V11.7992C24.7909 11.0313 24.1816 10.7562 23.4769 10.7562C23.0687 10.7562 22.7137 10.8091 22.3747 10.9349L22.3904 11.5239C22.6556 11.3888 22.9628 11.3356 23.2699 11.3356C23.6145 11.3356 23.8955 11.4274 23.9007 11.7704C23.7789 11.7509 23.6095 11.7362 23.4558 11.7362C22.947 11.7362 22.0304 11.8283 22.0304 12.5961C22.0304 13.142 22.5178 13.3882 23.0636 13.3882C23.4558 13.3882 23.7207 13.2479 23.9378 12.9341H23.9482C23.9482 13.0107 23.9538 13.0873 23.9595 13.1648L23.9595 13.1649C23.9634 13.2194 23.9674 13.2743 23.9696 13.33H24.844ZM22.9204 12.5334C22.9204 12.2919 23.1747 12.2002 23.498 12.2002C23.5993 12.2002 23.698 12.205 23.7902 12.2095L23.7902 12.2095C23.8282 12.2114 23.8651 12.2132 23.9007 12.2146C23.9007 12.509 23.673 12.8088 23.3124 12.8088C23.09 12.8088 22.9204 12.707 22.9204 12.5334Z" fill="#FFFFFE"/>
<path fill-rule="evenodd" clip-rule="evenodd" d="M10.1569 13.248H11.1107V10.7321H10.1569V13.248ZM10.1569 10.3215H11.1107V9.68408H10.1569V10.3215ZM13.4433 10.6742C13.5544 10.6742 13.671 10.6887 13.7664 10.7029L13.7186 11.4273C13.6128 11.3985 13.5067 11.3985 13.3956 11.3985C12.9505 11.3985 12.7014 11.6931 12.7014 12.1858V13.248H11.7476V10.7321H12.6167V11.1956H12.6271C12.7915 10.877 13.03 10.6742 13.4433 10.6742ZM17.014 11.9926C17.014 12.8233 16.3198 13.3061 15.4086 13.3061C14.4973 13.3061 13.8031 12.8233 13.8031 11.9926C13.8031 11.157 14.4973 10.6742 15.4086 10.6742C16.3198 10.6742 17.014 11.157 17.014 11.9926ZM14.7887 11.9926C14.7887 12.3645 14.9688 12.6976 15.4086 12.6976C15.8484 12.6976 16.0286 12.3645 16.0286 11.9926C16.0286 11.6159 15.8484 11.2827 15.4086 11.2827C14.9688 11.2827 14.7887 11.6159 14.7887 11.9926ZM8.63491 10.7321H9.49881V12.9537C9.49881 13.987 8.94774 14.3204 7.83498 14.3204C7.37936 14.3204 7.00311 14.2332 6.78049 14.1611L6.82829 13.4752C7.11966 13.6057 7.36339 13.6828 7.76083 13.6828C8.31198 13.6828 8.60858 13.4463 8.60858 12.9537V12.8182H8.59784C8.37016 13.1132 8.05228 13.248 7.67081 13.248C6.913 13.248 6.44141 12.7269 6.44141 11.9829C6.44141 11.2342 6.82829 10.6742 7.68659 10.6742C8.0945 10.6742 8.42311 10.877 8.62454 11.1859H8.63491V10.7321ZM7.96752 11.3406C7.61248 11.3406 7.42701 11.6255 7.42701 11.9683C7.42701 12.3593 7.68139 12.5817 7.96752 12.5817C8.30651 12.5817 8.57685 12.321 8.57685 11.9345C8.57685 11.6542 8.39663 11.3406 7.96752 11.3406Z" fill="#D8232A"/>
</svg>
