<svg width="58" height="40" viewBox="0 0 58 40" fill="none" xmlns="http://www.w3.org/2000/svg">
<path d="M6 0.5H52C55.0376 0.5 57.5 2.96243 57.5 6V34C57.5 37.0376 55.0376 39.5 52 39.5H6C2.96243 39.5 0.5 37.0376 0.5 34V6C0.5 2.96243 2.96243 0.5 6 0.5Z" fill="white"/>
<path d="M6 0.5H52C55.0376 0.5 57.5 2.96243 57.5 6V34C57.5 37.0376 55.0376 39.5 52 39.5H6C2.96243 39.5 0.5 37.0376 0.5 34V6C0.5 2.96243 2.96243 0.5 6 0.5Z" stroke="#E9EAEB"/>
<path fill-rule="evenodd" clip-rule="evenodd" d="M15.4023 8.25989H28.8869C38.0499 8.25989 41.5711 13.4148 41.5711 19.9306C41.5711 27.7248 36.6495 31.6426 28.8869 31.6426H15.4023V8.25989ZM16.6827 9.66202V30.3229H28.8868C36.2492 30.3229 40.2506 26.7763 40.2506 19.9718C40.2506 12.9612 35.9291 9.66202 28.8868 9.66202H16.6827ZM20.2839 20.343C21.632 20.343 22.7248 19.2167 22.7248 17.8274C22.7248 16.438 21.632 15.3118 20.2839 15.3118C18.9359 15.3118 17.8431 16.438 17.8431 17.8274C17.8431 19.2167 18.9359 20.343 20.2839 20.343ZM18.3234 21.4152H22.2447V28.5909H18.3234V21.4152Z" fill="black"/>
<path fill-rule="evenodd" clip-rule="evenodd" d="M35.809 15.518H36.9293V18.9821H38.5699C38.1297 12.6725 33.2881 11.2703 28.8867 11.2703H24.2051V15.518H24.8853C26.1657 15.518 26.926 16.384 26.926 17.8274C26.926 19.2707 26.1657 20.1368 24.9253 20.1368H24.2051V28.5908H28.8867C36.0491 28.5908 38.4899 25.168 38.6099 20.1368H35.809V15.518ZM30.4072 18.9821V20.1368H27.6062V15.518H30.3271V16.6727H28.7266V17.2088H30.2471V18.3635H28.7666V18.9821H30.4072ZM30.8872 20.1368L32.2477 15.518H33.8482L35.2087 20.1368H34.0483L33.8082 19.2707H32.3277L32.0876 20.1368H30.8872ZM32.6604 18.0748H32.6479V18.116L32.6604 18.0748ZM32.6604 18.0748H33.4481L33.088 16.7964H33.048L32.6604 18.0748ZM24.2051 18.9821V16.6727H24.8853C25.3255 16.6727 25.8056 16.7964 25.8056 17.8274C25.8056 18.8584 25.3655 18.9821 24.8853 18.9821H24.2051Z" fill="#D50072"/>
</svg>
