<svg width="34" height="24" viewBox="0 0 34 24" fill="none" xmlns="http://www.w3.org/2000/svg">
<path d="M4 0.5H30C31.933 0.5 33.5 2.067 33.5 4V20C33.5 21.933 31.933 23.5 30 23.5H4C2.067 23.5 0.5 21.933 0.5 20V4C0.5 2.067 2.067 0.5 4 0.5Z" fill="white"/>
<path d="M4 0.5H30C31.933 0.5 33.5 2.067 33.5 4V20C33.5 21.933 31.933 23.5 30 23.5H4C2.067 23.5 0.5 21.933 0.5 20V4C0.5 2.067 2.067 0.5 4 0.5Z" stroke="#E9EAEB"/>
<path fill-rule="evenodd" clip-rule="evenodd" d="M27.2937 13.9481H28.1323H28.133C28.2207 13.9499 28.2936 13.8774 28.2969 13.7852V11.3417C28.2969 11.0348 28.3125 10.7577 28.4302 10.4805C28.5109 10.2697 28.7013 10.1277 28.9172 10.1172C29.4537 10.1172 29.4485 10.7352 29.4445 11.2206C29.4441 11.2616 29.4438 11.3016 29.4438 11.3402V13.8056C29.4541 13.8847 29.5168 13.9447 29.5927 13.9481H30.4388C30.519 13.9499 30.5881 13.889 30.6004 13.8056V10.9487C30.6004 10.5095 30.6004 9.89802 30.3807 9.53474C30.1431 9.14328 29.7752 9 29.3983 9C28.8174 9 28.4875 9.29595 28.2522 9.91681H28.2358V9.22235C28.2188 9.14975 28.1579 9.09791 28.0868 9.09552H27.3063C27.2239 9.09338 27.1536 9.15806 27.1447 9.24427V13.7852C27.1458 13.8723 27.2109 13.9436 27.2937 13.9481ZM26.5042 11.5664C26.5042 10.1337 25.8288 9.00626 24.5798 9.00626C23.3629 9.00626 22.6874 10.1149 22.6874 11.5187C22.6874 12.9225 23.3547 14.0499 24.5798 14.0499C25.7595 14.0499 26.5042 12.9514 26.5042 11.5664ZM23.9281 11.3754C23.9281 10.8211 23.9676 9.93325 24.588 9.93325C24.8546 9.93325 25.043 10.0593 25.1376 10.3725C25.2478 10.735 25.2635 11.1938 25.2635 11.5758C25.2635 12.1583 25.2389 13.1135 24.5798 13.1135C23.9279 13.1135 23.928 11.9554 23.9281 11.3938L23.9281 11.3754ZM8.19142 13.9575H9.03225H9.033C9.0752 13.9585 9.11606 13.9419 9.14653 13.9111C9.177 13.8804 9.19458 13.8382 9.19536 13.7938V11.3879L9.19534 11.3503C9.19499 10.8271 9.19454 10.1352 9.77627 10.1352C10.3141 10.1352 10.3057 10.7431 10.299 11.2341V11.2341V11.2341V11.2341V11.2341C10.2983 11.287 10.2976 11.3386 10.2976 11.3879V13.7946C10.299 13.8815 10.364 13.9526 10.4465 13.9575H11.2896C11.3317 13.9583 11.3724 13.9415 11.4027 13.9109C11.433 13.8802 11.4504 13.8381 11.4512 13.7938V11.3879L11.4511 11.3307V11.3307C11.4506 11.0758 11.45 10.7318 11.5302 10.5181C11.612 10.2996 11.8097 10.1534 12.0329 10.1462C12.2764 10.1462 12.4648 10.2323 12.5274 10.5377C12.5593 10.6846 12.5552 11.0253 12.5525 11.2512V11.2512L12.5524 11.2513C12.5518 11.3046 12.5512 11.3515 12.5512 11.3879V13.7946C12.5523 13.8817 12.6175 13.9529 12.7002 13.9575H13.541C13.5832 13.9585 13.6241 13.9419 13.6545 13.9111C13.685 13.8804 13.7026 13.8382 13.7034 13.7938V10.9291C13.7034 10.8593 13.7045 10.788 13.7057 10.7159V10.7159V10.7158V10.7158V10.7157C13.7126 10.288 13.7199 9.83268 13.4911 9.50576C13.2138 9.13493 12.7678 8.95015 12.3244 9.02235C11.881 9.09455 11.509 9.41252 11.3514 9.85416C11.1153 9.28028 10.778 9.0133 10.2596 9.0133C9.74126 9.0133 9.35622 9.28028 9.15216 9.85416H9.13652V9.26149C9.13209 9.17701 9.06792 9.10956 8.98757 9.1049H8.20334C8.11674 9.104 8.0453 9.17597 8.04247 9.26697V13.8079C8.0501 13.8897 8.11342 13.9532 8.19142 13.9575ZM6.72797 13.992C6.67259 14.0424 6.59299 14.0509 6.52912 14.0131C6.29082 13.8047 6.21898 13.692 6.10865 13.519L6.10865 13.519L6.10864 13.519C6.08967 13.4892 6.06955 13.4577 6.04726 13.4235C5.58476 13.9184 5.25782 14.0663 4.65978 14.0663C3.95151 14.0663 3.40039 13.6068 3.40039 12.6876C3.40039 11.9697 3.77277 11.4819 4.2941 11.2423C4.67906 11.0647 5.19269 11.0096 5.63675 10.962C5.71932 10.9531 5.79948 10.9445 5.87596 10.9354V10.8211C5.87596 10.7993 5.87613 10.777 5.8763 10.7545C5.87777 10.5596 5.87941 10.3426 5.77393 10.1791C5.67116 10.0163 5.47603 9.9497 5.30176 9.9497C4.98077 9.9497 4.69478 10.1227 4.62477 10.4805C4.6159 10.564 4.55481 10.6308 4.47582 10.6434L3.66701 10.5502C3.62665 10.5441 3.59043 10.5209 3.56678 10.486C3.54314 10.4511 3.53414 10.4075 3.54189 10.3654C3.72883 9.32571 4.62254 9.01176 5.42315 9.01176C5.83277 9.01176 6.3675 9.12606 6.68924 9.45176C7.06693 9.8235 7.06459 10.3101 7.06204 10.842C7.06183 10.8859 7.06162 10.9301 7.06162 10.9746V12.3517C7.06162 12.7226 7.19252 12.9071 7.33041 13.1014C7.34679 13.1245 7.36326 13.1478 7.37963 13.1714C7.43325 13.2497 7.44517 13.3476 7.37963 13.4063C7.20759 13.5574 6.90224 13.8361 6.73467 13.9935L6.72797 13.992ZM5.87968 11.8358L5.8797 11.8786C5.88 12.2043 5.88025 12.4804 5.72253 12.7753C5.58848 13.0242 5.37622 13.1777 5.13939 13.1777C4.81691 13.1777 4.62848 12.9193 4.62848 12.5357C4.62848 11.7825 5.27121 11.6455 5.87968 11.6455V11.8358ZM18.3572 13.0982C18.3736 13.1213 18.3901 13.1446 18.4065 13.1683C18.4631 13.2497 18.475 13.3452 18.4028 13.3993C18.2308 13.5504 17.9254 13.8299 17.7578 13.9865C17.7021 14.0363 17.6228 14.0444 17.559 14.0068C17.3197 13.7975 17.2488 13.6865 17.1369 13.5112L17.1368 13.5111C17.1181 13.4818 17.0983 13.4508 17.0764 13.4173C16.6146 13.9121 16.2855 14.0601 15.6897 14.0601C14.9814 14.0601 14.4303 13.6005 14.4303 12.6821C14.4303 11.9634 14.8004 11.4756 15.3277 11.236C15.7135 11.0578 16.23 11.0029 16.6754 10.9556C16.7562 10.947 16.8346 10.9387 16.9096 10.9299V10.818C16.9096 10.7962 16.9097 10.7741 16.9099 10.7517C16.9114 10.5567 16.913 10.3397 16.8068 10.1767C16.707 10.0139 16.5081 9.94656 16.3346 9.94656C16.0136 9.94656 15.7291 10.1196 15.6584 10.4774C15.6493 10.5607 15.5883 10.6274 15.5094 10.6402L14.6939 10.5478C14.6533 10.542 14.6167 10.5188 14.5929 10.4836C14.5691 10.4485 14.5601 10.4046 14.568 10.3623C14.7557 9.32179 15.6494 9.00862 16.4501 9.00862C16.8589 9.00862 17.3937 9.12292 17.7161 9.44862C18.0946 9.81843 18.092 10.3013 18.089 10.8304C18.0888 10.8771 18.0885 10.9241 18.0885 10.9714V12.3494C18.0885 12.7195 18.2194 12.9039 18.3572 13.0982ZM16.1708 13.173C16.4069 13.173 16.6199 13.0195 16.7532 12.7713C16.9114 12.4749 16.9113 12.1974 16.9111 11.8677L16.9111 11.8326V11.6416C16.3026 11.6416 15.6599 11.7778 15.6599 12.5318C15.6599 12.9146 15.8483 13.173 16.1708 13.173ZM19.1185 9.25131V9.898C19.118 9.94237 19.1349 9.98498 19.1652 10.0159C19.1954 10.0468 19.2364 10.0634 19.2786 10.0616H20.7264L19.0663 12.567C18.9906 12.7014 18.9548 12.8565 18.9636 13.0125V13.6741C18.9636 13.7696 19.0641 13.8784 19.1602 13.8244C20.0758 13.3253 21.1646 13.3233 22.0819 13.8189C22.1869 13.8761 22.2859 13.7657 22.2859 13.6701V12.9749C22.2831 12.8686 22.2262 12.7721 22.137 12.722C21.6536 12.4363 21.0913 12.3525 20.5596 12.3658L21.9925 10.2159C22.1258 10.0233 22.2003 9.90114 22.2003 9.80797V9.25131C22.2007 9.20709 22.1839 9.1646 22.1538 9.1337C22.1237 9.10281 22.0829 9.08618 22.0409 9.08768H19.2756C19.2335 9.08519 19.1924 9.10157 19.1624 9.13277C19.1325 9.16396 19.1165 9.20703 19.1185 9.25131Z" fill="black"/>
<path fill-rule="evenodd" clip-rule="evenodd" d="M20.5019 16.8449C20.6933 16.3446 21.1193 15.2234 20.9167 14.9518H20.9182C20.7165 14.6795 19.5845 14.8224 19.0753 14.8867L19.0742 14.8868C18.9193 14.9064 18.8954 14.7647 19.0347 14.6621C19.9389 13.9943 21.4202 14.1853 21.5922 14.4108C21.7643 14.6363 21.5453 16.1974 20.6985 16.9428C20.5682 17.0571 20.4438 16.996 20.5019 16.8449ZM14.418 17.6169C16.3871 17.6169 18.6802 16.9631 20.2598 15.7378V15.7402C20.5212 15.5335 20.2971 15.2297 20.0304 15.3487C18.3062 16.1133 16.4553 16.5124 14.584 16.5231C11.9878 16.5231 9.47649 15.7746 7.44479 14.5321C7.26679 14.4233 7.13423 14.6151 7.28318 14.7553C9.23913 16.6105 11.7836 17.631 14.418 17.6169Z" fill="#FF9900"/>
</svg>
