<svg width="34" height="24" viewBox="0 0 34 24" fill="none" xmlns="http://www.w3.org/2000/svg">
<path d="M4 0.5H30C31.933 0.5 33.5 2.067 33.5 4V20C33.5 21.933 31.933 23.5 30 23.5H4C2.067 23.5 0.5 21.933 0.5 20V4C0.5 2.067 2.067 0.5 4 0.5Z" fill="white"/>
<path d="M4 0.5H30C31.933 0.5 33.5 2.067 33.5 4V20C33.5 21.933 31.933 23.5 30 23.5H4C2.067 23.5 0.5 21.933 0.5 20V4C0.5 2.067 2.067 0.5 4 0.5Z" stroke="#E9EAEB"/>
<path fill-rule="evenodd" clip-rule="evenodd" d="M6.93541 13.7668C6.74946 13.873 6.55148 13.926 6.3416 13.926H6.17964C6.13757 13.926 6.07749 13.9224 5.90398 13.8908L6.49065 11.3212C6.59858 11.2213 6.715 11.1565 6.84998 11.1252C6.98496 11.094 7.07188 11.0856 7.15596 11.0856C7.41375 11.0856 7.61323 11.1626 7.70926 11.3313C7.80516 11.4998 7.85321 11.734 7.85321 12.0338C7.85321 12.2774 7.81413 12.5116 7.73624 12.7364C7.65822 12.9612 7.55179 13.1626 7.41687 13.3406C7.2819 13.5185 7.1213 13.6607 6.93541 13.7668ZM8.25815 10.0761C8.04807 9.96993 7.79925 9.91679 7.51128 9.91679C7.37324 9.91679 7.24431 9.93243 7.12442 9.96363C7.00433 9.99498 6.89123 10.0354 6.77134 10.0916L7.3224 7.67798L5.9277 7.90277L4.37109 14.7129C4.54502 14.8004 4.72941 14.869 4.92446 14.9189C5.11932 14.9689 5.30378 15.0063 5.47777 15.0314C5.65169 15.0563 5.80624 15.0703 5.94122 15.0735C6.0762 15.0766 6.17067 15.0782 6.22463 15.0782C6.64445 15.0782 7.03444 14.9953 7.39431 14.8299C7.75425 14.6646 8.06608 14.4398 8.33012 14.1555C8.59403 13.8714 8.80248 13.5373 8.95547 13.1532C9.10846 12.7691 9.18492 12.3616 9.18492 11.9307C9.18492 11.6498 9.15182 11.3875 9.08589 11.1439C9.01983 10.9003 8.91788 10.6881 8.77998 10.5069C8.64194 10.3258 8.46802 10.1823 8.25815 10.0761ZM11.9469 9.31565L12.1518 8.41824H10.8158L10.6109 9.31565H11.9469ZM13.8802 13.8888C13.7081 13.8888 13.5727 13.8633 13.4745 13.812C13.376 13.7609 13.3069 13.6888 13.267 13.596C13.2269 13.5033 13.2117 13.3929 13.2209 13.2648C13.2301 13.1369 13.2532 12.9993 13.2901 12.852L13.6958 11.0856H15.2174L15.494 9.91432H13.9632L14.3136 8.42624L12.8843 8.65669L11.9806 12.6312C11.9069 12.9576 11.8638 13.2681 11.8515 13.5624C11.8391 13.8569 11.8822 14.1177 11.9806 14.3448C12.0789 14.5721 12.2448 14.7513 12.4786 14.8824C12.7121 15.0135 13.041 15.0792 13.4653 15.0792C13.7603 15.0792 14.0154 15.0536 14.2306 15.0024C14.2529 14.9971 14.2866 14.9886 14.3085 14.9831L14.5868 13.7714C14.4933 13.8046 14.3995 13.8268 14.309 13.8456C14.1707 13.8744 14.0278 13.8888 13.8802 13.8888ZM30.114 9.91593H28.778L28.0009 13.3196H28.0022L27.8954 13.7878C27.8209 13.8096 27.7467 13.8292 27.673 13.8446C27.5347 13.8733 27.3918 13.8878 27.2442 13.8878C27.072 13.8878 26.9367 13.8622 26.8384 13.8109C26.74 13.7598 26.6709 13.6878 26.631 13.5949C26.5909 13.5022 26.5756 13.3918 26.5849 13.2637C26.5941 13.1358 26.6172 12.9982 26.6541 12.8509L27.0597 11.0845L27.3272 9.91324L27.3273 9.91289H25.9624L25.3446 12.6302C25.2708 12.9566 25.2277 13.267 25.2155 13.5614C25.2031 13.8558 25.2462 14.1167 25.3446 14.3437C25.4429 14.571 25.6088 14.7503 25.8426 14.8814C26.0761 15.0125 26.405 15.0782 26.8292 15.0782C27.1243 15.0782 27.3794 15.0526 27.5946 15.0014C27.6033 14.9993 27.6117 14.9971 27.6202 14.9949L27.6196 14.9975C27.5598 15.2778 27.4386 15.5051 27.2443 15.6826C27.0497 15.8602 26.761 15.949 26.3781 15.949C26.2147 15.949 26.0662 15.9389 25.9316 15.9195L25.6686 17.0713C25.8465 17.0953 26.0437 17.1076 26.2614 17.1076C26.6683 17.1076 27.0244 17.0592 27.3296 16.9627C27.6347 16.8661 27.8964 16.7198 28.1148 16.5235C28.3332 16.3273 28.5157 16.0812 28.6624 15.7855C28.8089 15.4895 28.9271 15.1393 29.0169 14.7342L29.9413 10.6883L29.938 10.6868L30.114 9.91593ZM23.5609 11.0855C22.938 11.0855 22.819 11.0855 22.5637 11.2234C22.3825 11.3212 22.2325 11.4682 22.1008 11.6397C21.969 11.8113 21.8657 12.0093 21.7908 12.2338C21.7158 12.4584 21.6784 12.6923 21.6784 12.9356C21.6784 13.2349 21.7263 13.4721 21.8223 13.6467C21.918 13.8214 22.0949 13.9086 22.3525 13.9086C22.4903 13.9086 22.6146 13.8806 22.7255 13.8244C22.8363 13.7683 22.9547 13.6747 23.0805 13.5437C23.0924 13.3879 23.1119 13.2242 23.1389 13.0525C23.1635 12.8959 23.1942 12.7497 23.2222 12.6161L23.2222 12.6161L23.2222 12.616L23.2222 12.6159L23.2222 12.6158L23.2222 12.6158L23.2301 12.5784L23.5609 11.0855ZM24.5095 12.8233C24.4255 13.1789 24.4016 13.5359 24.4375 13.8946C24.4736 14.2534 24.6053 14.803 24.7339 15.0782H23.441C23.3233 14.871 23.2972 14.7458 23.2792 14.6592L23.2792 14.6592C23.2731 14.6296 23.2679 14.6046 23.2602 14.5823C23.0924 14.7258 22.9067 14.8443 22.7031 14.9378C22.4993 15.0314 22.2716 15.0782 22.02 15.0782C21.7204 15.0782 21.4642 15.0235 21.2516 14.9145C21.0388 14.8054 20.8651 14.6588 20.7303 14.4747C20.5955 14.2908 20.498 14.0756 20.4383 13.8291C20.3783 13.5828 20.3484 13.3192 20.3484 13.0385C20.3484 12.6081 20.4216 12.2027 20.5686 11.8222C20.7153 11.4417 20.9191 11.1095 21.1797 10.8257C21.4403 10.5419 22.0693 9.91601 23.1015 9.91601L25.1742 9.91594L24.5095 12.8233ZM17.0725 13.9287C16.9216 13.9287 16.795 13.9162 16.6925 13.891L17.3394 11.0856C17.3394 11.0856 17.6686 11.0856 17.8668 11.0863C18.1502 11.0875 18.3512 11.1877 18.4659 11.3761C18.5804 11.5644 18.6377 11.7938 18.6377 12.0637C18.6377 12.3401 18.6 12.5928 18.5247 12.8219C18.4491 13.0513 18.3437 13.2474 18.208 13.4106C18.0723 13.574 17.9079 13.7012 17.7149 13.7921C17.5218 13.8832 17.3077 13.9287 17.0725 13.9287ZM19.7596 13.2175C19.9044 12.8377 19.9768 12.4185 19.9768 11.96C19.9768 11.6775 19.939 11.4123 19.8637 11.1641C19.7882 10.9162 19.6721 10.6995 19.5154 10.5142C19.3584 10.329 19.158 10.1831 18.9137 10.0762C18.6694 9.96952 18.3783 9.91609 18.0406 9.91609L17.5756 9.91607L16.2563 9.91609L14.702 16.7262H16.041L16.4482 15.0213C16.6532 15.059 16.8583 15.0779 17.0634 15.0779C17.4856 15.0779 17.8762 15.0009 18.2351 14.8471C18.5939 14.6933 18.9015 14.4783 19.158 14.2018C19.4143 13.9257 19.6149 13.5976 19.7596 13.2175ZM9.29303 15.0792L10.4725 9.91296H11.8085L10.6291 15.0792H9.29303Z" fill="#002855"/>
</svg>
