<svg width="34" height="24" viewBox="0 0 34 24" fill="none" xmlns="http://www.w3.org/2000/svg">
<path d="M4 0.5H30C31.933 0.5 33.5 2.067 33.5 4V20C33.5 21.933 31.933 23.5 30 23.5H4C2.067 23.5 0.5 21.933 0.5 20V4C0.5 2.067 2.067 0.5 4 0.5Z" fill="white"/>
<path d="M4 0.5H30C31.933 0.5 33.5 2.067 33.5 4V20C33.5 21.933 31.933 23.5 30 23.5H4C2.067 23.5 0.5 21.933 0.5 20V4C0.5 2.067 2.067 0.5 4 0.5Z" stroke="#E9EAEB"/>
<path fill-rule="evenodd" clip-rule="evenodd" d="M15.8387 19.3H18.4348C22.4872 19.3 25.7165 16.085 25.8432 12.1135V12.0504C25.7798 8.0159 22.4872 4.73784 18.4348 4.80088H15.5221C11.6597 4.92696 8.62034 8.20502 8.74698 12.1135C8.74698 16.0219 11.9129 19.2369 15.8387 19.3ZM10.0134 12.0504C10.0134 8.77235 12.7361 6.06165 16.0287 6.06165C19.3213 6.06165 22.044 8.77235 22.044 12.0504C22.044 15.3285 19.3213 18.0392 16.0287 18.0392C12.7361 18.0392 10.0134 15.3285 10.0134 12.0504ZM16.9785 16.0849V8.07892C19.1947 8.64627 20.5877 10.8527 20.0178 13.059C19.6379 14.572 18.4981 15.7067 16.9785 16.0849ZM12.1029 11.0418C11.533 13.2482 12.8627 15.5176 15.0789 16.0849V8.07892C13.6226 8.45716 12.4828 9.59187 12.1029 11.0418Z" fill="#0079BE"/>
</svg>
