<svg width="32" height="32" viewBox="0 0 32 32" fill="none" xmlns="http://www.w3.org/2000/svg">
<g clip-path="url(#clip0_3488_546975)">
<path d="M10.0001 16L14.0001 20L22.0001 12M29.3334 16C29.3334 23.3638 23.3639 29.3334 16.0001 29.3334C8.63628 29.3334 2.66675 23.3638 2.66675 16C2.66675 8.63622 8.63628 2.66669 16.0001 2.66669C23.3639 2.66669 29.3334 8.63622 29.3334 16Z" stroke="#A4A7AE" stroke-width="2.66667" stroke-linecap="round" stroke-linejoin="round"/>
</g>
<defs>
<clipPath id="clip0_3488_546975">
<path d="M0 16C0 7.16344 7.16344 0 16 0C24.8366 0 32 7.16344 32 16C32 24.8366 24.8366 32 16 32C7.16344 32 0 24.8366 0 16Z" fill="white"/>
</clipPath>
</defs>
</svg>
