<svg width="24" height="24" viewBox="0 0 24 24" fill="none" xmlns="http://www.w3.org/2000/svg">
<g clip-path="url(#clip0_9337_587840)">
<path d="M21.6927 11.077C22.9671 11.077 24.0002 10.0439 24.0002 8.76953C24.0002 7.49515 22.967 6.46207 21.6926 6.46207C20.4181 6.46207 19.3849 7.49524 19.3849 8.76972V11.077H21.6927ZM15.2311 11.077C16.5056 11.077 17.5387 10.0438 17.5387 8.76933V2.30829C17.5387 1.0338 16.5056 0.00063293 15.2311 0.00063293C13.9566 0.00063293 12.9234 1.03381 12.9234 2.30829V8.76933C12.9234 10.0438 13.9566 11.077 15.2311 11.077Z" fill="#717680"/>
<path d="M2.30746 12.9231C1.03308 12.9231 0 13.9561 0 15.2305C0 16.5049 1.03318 17.538 2.30756 17.538C3.58204 17.538 4.61531 16.5048 4.61531 15.2303V12.9231H2.30746ZM8.76909 12.9231C7.49461 12.9231 6.46143 13.9562 6.46143 15.2307V21.6918C6.46143 22.9662 7.49461 23.9994 8.76909 23.9994C10.0436 23.9994 11.0767 22.9662 11.0767 21.6918V15.2307C11.0767 13.9562 10.0436 12.9231 8.76909 12.9231Z" fill="#717680"/>
<path d="M12.9237 21.6926C12.9237 22.967 13.9568 24 15.2312 24C16.5056 24 17.5386 22.9669 17.5386 21.6925C17.5386 20.418 16.5055 19.3847 15.231 19.3847H12.9237V21.6926ZM12.9237 15.231C12.9237 16.5054 13.9569 17.5386 15.2314 17.5386H21.6924C22.9669 17.5386 24.0001 16.5054 24.0001 15.231C24.0001 13.9565 22.9669 12.9233 21.6924 12.9233L15.2314 12.9233C13.9569 12.9233 12.9237 13.9565 12.9237 15.231Z" fill="#717680"/>
<path d="M11.0764 2.30746C11.0764 1.03308 10.0434 5.57047e-08 8.76898 0C7.49461 -5.57045e-08 6.46152 1.03318 6.46152 2.30756C6.46152 3.58204 7.49469 4.61531 8.76918 4.61531H11.0764L11.0764 2.30746ZM11.0764 8.76909C11.0764 7.49461 10.0433 6.46143 8.76878 6.46143L2.30774 6.46143C1.03326 6.46143 8.41533e-05 7.49461 8.40976e-05 8.76909C8.40419e-05 10.0436 1.03326 11.0767 2.30774 11.0767H8.76878C10.0433 11.0767 11.0764 10.0436 11.0764 8.76909Z" fill="#717680"/>
</g>
<defs>
<clipPath id="clip0_9337_587840">
<rect width="24" height="24" fill="white"/>
</clipPath>
</defs>
</svg>
