<svg width="24" height="24" viewBox="0 0 24 24" fill="none" xmlns="http://www.w3.org/2000/svg">
<g clip-path="url(#clip0_9337_588764)">
<path fill-rule="evenodd" clip-rule="evenodd" d="M24 12C24 18.6274 18.6274 24 12 24C9.92479 24 7.97261 23.4732 6.26988 22.5461L0 24L1.55869 17.9185C0.566569 16.172 0 14.1522 0 12C0 5.37258 5.37258 0 12 0C18.6274 0 24 5.37258 24 12ZM12.0001 22.2857C17.6807 22.2857 22.2858 17.6807 22.2858 12C22.2858 6.31936 17.6807 1.71429 12.0001 1.71429C6.31943 1.71429 1.71436 6.31936 1.71436 12C1.71436 14.1933 2.40086 16.2263 3.57072 17.8958L2.64942 21.3507L6.1652 20.4717C7.82312 21.6158 9.83335 22.2857 12.0001 22.2857ZM7.93483 5.90557C8.34224 5.90205 8.73629 5.89863 9.00009 6.42848C9.22834 6.88694 9.50902 7.67402 9.84032 8.61426L9.84462 8.62646C9.92198 8.84575 10.0428 9.18815 9.88402 9.41509C9.7223 9.64629 9.3617 10.1115 9.10054 10.4129C9.03364 10.49 8.89958 10.6667 9.08227 10.9546C9.12769 11.0261 9.16689 11.0995 9.21008 11.1803C9.38407 11.5057 9.62285 11.9524 10.5939 12.8937C11.574 13.8438 12.8036 14.3907 13.2571 14.5727C13.3803 14.6426 13.6764 14.7361 13.8751 14.5513C13.9664 14.4662 14.1385 14.2464 14.3262 14.0067C14.5465 13.7252 14.7885 13.4162 14.9465 13.2656C14.9513 13.2612 14.9562 13.2567 14.9612 13.2521C15.0669 13.1552 15.2345 13.0016 15.5425 13.1249C15.8122 13.2329 16.847 13.7309 17.6286 14.107C17.7823 14.181 17.9262 14.2502 18.0526 14.3109C18.1769 14.3503 18.3572 14.4953 18.3572 14.786C18.3572 15.4418 17.8929 17.3838 15.6362 17.424C13.3795 17.4641 10.6612 16.2839 8.59243 14.0024C6.44874 11.6383 5.81257 10.058 5.81257 8.61425C5.81257 6.85268 7.04472 5.90615 7.83493 5.90615C7.86828 5.90615 7.9016 5.90586 7.93483 5.90557Z" fill="#717680"/>
</g>
<defs>
<clipPath id="clip0_9337_588764">
<rect width="24" height="24" fill="white"/>
</clipPath>
</defs>
</svg>
