<svg width="24" height="24" viewBox="0 0 24 24" fill="none" xmlns="http://www.w3.org/2000/svg">
<g clip-path="url(#clip0_9337_588286)">
<path fill-rule="evenodd" clip-rule="evenodd" d="M0.752055 3.76747C0 5.24346 0 7.17564 0 11.04V12.96C0 16.8244 0 18.7565 0.752055 20.2325C1.41358 21.5309 2.46915 22.5864 3.76747 23.2479C5.24346 24 7.17564 24 11.04 24H12.96C16.8244 24 18.7565 24 20.2325 23.2479C21.5309 22.5864 22.5864 21.5309 23.2479 20.2325C24 18.7565 24 16.8244 24 12.96V11.04C24 7.17564 24 5.24346 23.2479 3.76747C22.5864 2.46915 21.5309 1.41358 20.2325 0.752055C18.7565 0 16.8244 0 12.96 0H11.04C7.17564 0 5.24346 0 3.76747 0.752055C2.46915 1.41358 1.41358 2.46915 0.752055 3.76747ZM11.0921 9.7525C11.0921 9.20163 11.5424 8.98976 12.2884 8.98976C13.358 8.98976 14.7092 9.31463 15.7788 9.89375V6.57442C14.6107 6.1083 13.4566 5.92468 12.2884 5.92468C9.43129 5.92468 7.53125 7.42191 7.53125 9.922C7.53125 12.2752 9.48003 12.9815 11.0249 13.5414C12.0393 13.909 12.8795 14.2136 12.8795 14.8798C12.8795 15.5295 12.3165 15.7414 11.5284 15.7414C10.3602 15.7414 8.86831 15.2612 7.68607 14.6114V17.9731C8.99498 18.5381 10.318 18.7782 11.5284 18.7782C14.4558 18.7782 16.4685 17.3234 16.4685 14.795C16.4597 12.1862 14.3964 11.4819 12.8288 10.9468C11.8672 10.6185 11.0921 10.354 11.0921 9.7525Z" fill="#717680"/>
</g>
<defs>
<clipPath id="clip0_9337_588286">
<rect width="24" height="24" fill="white"/>
</clipPath>
</defs>
</svg>
