<svg width="24" height="24" viewBox="0 0 24 24" fill="none" xmlns="http://www.w3.org/2000/svg">
<g clip-path="url(#clip0_9337_587835)">
<path d="M21.6926 11.077C22.967 11.077 24.0001 10.0439 24.0001 8.7695C24.0001 7.49513 22.9669 6.46205 21.6925 6.46205C20.418 6.46205 19.3848 7.49522 19.3848 8.7697V11.077H21.6926ZM15.231 11.077C16.5055 11.077 17.5387 10.0438 17.5387 8.76931V2.30826C17.5387 1.03378 16.5055 0.000610352 15.231 0.000610352C13.9565 0.000610352 12.9233 1.03378 12.9233 2.30827V8.76931C12.9233 10.0438 13.9565 11.077 15.231 11.077Z" fill="#2EB67D"/>
<path d="M2.30737 12.923C1.033 12.923 -8.39233e-05 13.9561 -8.39233e-05 15.2305C-8.39233e-05 16.5049 1.0331 17.538 2.30747 17.538C3.58195 17.538 4.61523 16.5048 4.61523 15.2303V12.923H2.30737ZM8.769 12.923C7.49452 12.923 6.46135 13.9562 6.46135 15.2307V21.6917C6.46135 22.9662 7.49452 23.9994 8.769 23.9994C10.0435 23.9994 11.0767 22.9662 11.0767 21.6917V15.2307C11.0767 13.9562 10.0435 12.923 8.769 12.923Z" fill="#E01E5A"/>
<path d="M12.9237 21.6926C12.9237 22.9669 13.9567 24 15.2311 24C16.5055 24 17.5386 22.9668 17.5386 21.6925C17.5386 20.418 16.5054 19.3847 15.2309 19.3847L12.9237 19.3847L12.9237 21.6926ZM12.9237 15.2309C12.9237 16.5054 13.9568 17.5386 15.2313 17.5386L21.6923 17.5386C22.9668 17.5386 24 16.5054 24 15.2309C24 13.9565 22.9668 12.9233 21.6923 12.9233L15.2313 12.9233C13.9568 12.9233 12.9237 13.9565 12.9237 15.2309Z" fill="#ECB22E"/>
<path d="M11.0764 2.30743C11.0764 1.03306 10.0433 -2.24492e-05 8.76889 -2.25049e-05C7.49452 -2.25606e-05 6.46144 1.03316 6.46144 2.30753C6.46144 3.58202 7.49461 4.61529 8.76909 4.61529L11.0764 4.61529L11.0764 2.30743ZM11.0764 8.76907C11.0764 7.49458 10.0432 6.46141 8.7687 6.46141L2.30765 6.46141C1.03317 6.46141 1.5658e-07 7.49458 1.00871e-07 8.76907C4.51614e-08 10.0435 1.03317 11.0767 2.30766 11.0767L8.7687 11.0767C10.0432 11.0767 11.0764 10.0435 11.0764 8.76907Z" fill="#36C5F0"/>
</g>
<defs>
<clipPath id="clip0_9337_587835">
<rect width="24" height="24" fill="white"/>
</clipPath>
</defs>
</svg>
