<svg width="24" height="24" viewBox="0 0 24 24" fill="none" xmlns="http://www.w3.org/2000/svg">
<g clip-path="url(#clip0_9337_587968)">
<path fill-rule="evenodd" clip-rule="evenodd" d="M12 24C18.6274 24 24 18.6274 24 12C24 5.37258 18.6274 0 12 0C5.37258 0 0 5.37258 0 12C0 18.6274 5.37258 24 12 24Z" fill="#1ED760"/>
<path fill-rule="evenodd" clip-rule="evenodd" d="M16.471 17.0409C16.8127 17.236 17.2501 17.145 17.4551 16.8197C17.6601 16.4943 17.5508 16.078 17.2091 15.8828C14.2022 14.1261 10.4572 13.7228 6.0972 14.6726C5.71451 14.7507 5.48215 15.1151 5.56416 15.4794C5.64617 15.8437 6.02886 16.0649 6.41156 15.9869C10.4025 15.1281 13.7785 15.4794 16.471 17.0409ZM17.6191 14.1391C18.0428 14.3734 18.5895 14.2563 18.8492 13.8529C19.1089 13.4495 18.9722 12.929 18.5758 12.6948C15.0359 10.6259 9.86949 10.0533 5.71451 11.2504C5.23613 11.3806 4.97645 11.849 5.11313 12.3044C5.2498 12.7468 5.74184 12.9941 6.22021 12.864C9.85583 11.81 14.5439 12.3305 17.6191 14.1391ZM5.6735 9.49381C9.19977 8.47886 15.2819 8.67404 18.9722 10.756C19.4779 11.0553 20.134 10.8861 20.421 10.3916C20.7217 9.9102 20.5577 9.28561 20.0519 8.99935C15.815 6.60511 9.09043 6.37089 5.04479 7.54199C4.48441 7.71114 4.15638 8.28368 4.33406 8.81718C4.51175 9.36369 5.11313 9.66297 5.6735 9.49381Z" fill="white"/>
</g>
<defs>
<clipPath id="clip0_9337_587968">
<rect width="24" height="24" fill="white"/>
</clipPath>
</defs>
</svg>
