<svg width="24" height="24" viewBox="0 0 24 24" fill="none" xmlns="http://www.w3.org/2000/svg">
<path opacity="0.5" d="M20.3219 6.10822C20.2999 6.17439 20.288 6.24056 20.2769 6.3021C20.2639 6.37473 20.2519 6.44091 20.226 6.49298C19.267 11.5912 15.9106 13.3226 11.5952 13.3226H9.38955C8.86212 13.3226 8.43058 13.7074 8.33468 14.2365L7.23186 21.3547L6.89622 23.3747C6.84827 23.7114 7.08801 24 7.4716 24H11.3555C11.8349 24 12.2185 23.6633 12.2665 23.2305L13.0816 18.1323C13.1296 17.6994 13.5611 17.3627 13.9926 17.3627H14.568C18.308 17.3627 21.2809 15.8236 22.1439 11.3988C22.4796 9.57114 22.3357 7.98397 21.3768 6.92585C21.0891 6.58918 20.7534 6.3487 20.3219 6.10822Z" fill="#717680"/>
<path opacity="0.8" d="M20.3217 6.10822C20.6094 4.23246 20.3217 2.98196 19.3147 1.82766C18.2119 0.529058 16.1981 0 13.6088 0H6.17678C5.64934 0 5.2178 0.384769 5.1219 0.913828L2.00523 20.6333C1.95728 21.018 2.24497 21.3547 2.62856 21.3547H7.23165L8.38383 14.0505L9.62905 6.15632C9.677 5.81965 10.1085 5.38678 10.5401 5.38678H16.3898C17.0611 5.38678 17.7324 5.43488 18.3078 5.53107C18.8352 5.62726 19.7942 5.86774 20.2737 6.15632L20.302 6.17711L20.3217 6.10822Z" fill="#717680"/>
<path d="M20.2737 6.15632C19.7942 5.86774 18.8352 5.62726 18.3078 5.53107C17.7324 5.43488 17.0611 5.38678 16.3898 5.38678H10.5401C10.1085 5.38678 9.677 5.81965 9.62905 6.15632L8.38379 14.0505C8.53656 13.6196 8.92592 13.3227 9.3893 13.3227H11.595C15.9103 13.3227 19.2668 11.5912 20.2257 6.49299C20.2517 6.44091 20.2636 6.37474 20.2767 6.3021C20.2839 6.26198 20.2915 6.21989 20.302 6.17711L20.2737 6.15632Z" fill="#717680"/>
</svg>
