<svg width="40" height="40" viewBox="0 0 40 40" fill="none" xmlns="http://www.w3.org/2000/svg">
<mask id="mask0_4980_382905" style="mask-type:alpha" maskUnits="userSpaceOnUse" x="4" y="0" width="32" height="40">
<path d="M4 4C4 1.79086 5.79086 0 8 0H24L36 12V36C36 38.2091 34.2091 40 32 40H8C5.79086 40 4 38.2091 4 36V4Z" fill="url(#paint0_linear_4980_382905)"/>
</mask>
<g mask="url(#mask0_4980_382905)">
<path d="M4 4C4 1.79086 5.79086 0 8 0H24L36 12V36C36 38.2091 34.2091 40 32 40H8C5.79086 40 4 38.2091 4 36V4Z" fill="#F5F5F5"/>
</g>
<path d="M24 0L36 12H28C25.7909 12 24 10.2091 24 8V0Z" fill="#E9EAEB"/>
<defs>
<linearGradient id="paint0_linear_4980_382905" x1="20" y1="0" x2="20" y2="40" gradientUnits="userSpaceOnUse">
<stop stop-opacity="0.4"/>
<stop offset="1"/>
</linearGradient>
</defs>
</svg>
