<svg width="221" height="48" viewBox="0 0 221 48" fill="none" xmlns="http://www.w3.org/2000/svg">
<g opacity="0.84">
<path d="M0 6C10.1433 15.4404 25.8567 15.4404 36 6C26.5596 16.1433 26.5596 31.8567 36 42C25.8567 32.5596 10.1433 32.5596 0 42C9.44041 31.8567 9.44041 16.1433 0 6Z" fill="white"/>
</g>
<g opacity="0.84">
<path d="M46 33V15.138H64.304V18.674H50.498V22.184H62.692V25.668H50.498V29.438H64.512V33H46Z" fill="white"/>
<path d="M67.3781 33V14.176H71.4341V33H67.3781Z" fill="white"/>
<path d="M79.7267 33.312C78.8947 33.312 78.1233 33.2427 77.4127 33.104C76.702 32.9827 76.078 32.7747 75.5407 32.48C75.0033 32.168 74.5787 31.752 74.2667 31.232C73.972 30.712 73.8247 30.0534 73.8247 29.256C73.8247 28.164 74.128 27.306 74.7347 26.682C75.3413 26.0407 76.1907 25.5814 77.2827 25.304C78.392 25.0267 79.6833 24.8534 81.1567 24.784C82.6473 24.6974 84.268 24.654 86.0187 24.654V24.16C86.0187 23.588 85.88 23.1374 85.6027 22.808C85.3253 22.4787 84.9007 22.2447 84.3287 22.106C83.774 21.95 83.046 21.872 82.1447 21.872C81.4687 21.872 80.8447 21.924 80.2727 22.028C79.718 22.1147 79.276 22.262 78.9467 22.47C78.6173 22.6607 78.4527 22.912 78.4527 23.224V23.484H74.3707C74.3533 23.4147 74.336 23.354 74.3187 23.302C74.3187 23.2327 74.3187 23.1547 74.3187 23.068C74.3187 22.2534 74.622 21.5427 75.2287 20.936C75.8353 20.312 76.7367 19.8354 77.9327 19.506C79.146 19.1594 80.6453 18.986 82.4307 18.986C84.0947 18.986 85.49 19.1334 86.6167 19.428C87.7607 19.7227 88.6273 20.208 89.2167 20.884C89.806 21.56 90.1007 22.4614 90.1007 23.588V29.334C90.1007 29.646 90.1613 29.8974 90.2827 30.088C90.4213 30.2614 90.6467 30.348 90.9587 30.348H92.3107V32.844C92.1027 32.9307 91.756 33.026 91.2707 33.13C90.7853 33.2514 90.248 33.312 89.6587 33.312C88.8613 33.312 88.2287 33.2167 87.7607 33.026C87.31 32.8527 86.9807 32.61 86.7727 32.298C86.5647 31.9687 86.4173 31.6134 86.3307 31.232H86.1227C85.6373 31.6654 85.0567 32.038 84.3807 32.35C83.722 32.662 83.0027 32.896 82.2227 33.052C81.4427 33.2254 80.6107 33.312 79.7267 33.312ZM80.7927 30.426C81.278 30.426 81.8153 30.374 82.4047 30.27C83.0113 30.1487 83.592 29.984 84.1467 29.776C84.7013 29.5507 85.152 29.2734 85.4987 28.944C85.8453 28.6147 86.0187 28.216 86.0187 27.748V27.02C84.164 27.02 82.6387 27.0894 81.4427 27.228C80.2467 27.3667 79.354 27.5834 78.7647 27.878C78.1753 28.1727 77.8807 28.5887 77.8807 29.126C77.8807 29.49 78.0193 29.7674 78.2967 29.958C78.5913 30.1314 78.964 30.2527 79.4147 30.322C79.8653 30.3914 80.3247 30.426 80.7927 30.426Z" fill="white"/>
<path d="M100.628 33.312C99.6056 33.312 98.6262 33.2254 97.6902 33.052C96.7542 32.896 95.9136 32.6534 95.1682 32.324C94.4402 31.9947 93.8596 31.5614 93.4262 31.024C92.9929 30.4867 92.7762 29.854 92.7762 29.126C92.7762 29.0394 92.7762 28.9614 92.7762 28.892C92.7936 28.8227 92.8109 28.7534 92.8282 28.684H96.9882C96.9882 28.7187 96.9796 28.762 96.9622 28.814C96.9622 28.866 96.9622 28.9094 96.9622 28.944C96.9622 29.3427 97.1356 29.6634 97.4822 29.906C97.8289 30.1487 98.2796 30.3307 98.8342 30.452C99.4062 30.556 100.013 30.608 100.654 30.608C101.261 30.608 101.85 30.5734 102.422 30.504C103.012 30.4347 103.497 30.3047 103.878 30.114C104.26 29.906 104.45 29.594 104.45 29.178C104.45 28.762 104.225 28.4587 103.774 28.268C103.324 28.0774 102.691 27.9387 101.876 27.852C101.079 27.748 100.143 27.618 99.0682 27.462C98.2536 27.3407 97.4909 27.1847 96.7802 26.994C96.0869 26.8034 95.4716 26.5607 94.9342 26.266C94.4142 25.954 94.0069 25.5554 93.7122 25.07C93.4176 24.5847 93.2702 23.9867 93.2702 23.276C93.2702 22.5134 93.4522 21.8634 93.8162 21.326C94.1802 20.7714 94.6916 20.3207 95.3502 19.974C96.0262 19.6274 96.8322 19.376 97.7682 19.22C98.7042 19.064 99.7356 18.986 100.862 18.986C101.85 18.986 102.778 19.064 103.644 19.22C104.528 19.376 105.3 19.6187 105.958 19.948C106.617 20.2774 107.137 20.6847 107.518 21.17C107.9 21.6554 108.09 22.2187 108.09 22.86C108.09 22.9294 108.09 22.9987 108.09 23.068C108.09 23.1374 108.082 23.198 108.064 23.25H103.904V23.12C103.904 22.7734 103.757 22.496 103.462 22.288C103.168 22.08 102.786 21.9327 102.318 21.846C101.85 21.742 101.348 21.69 100.81 21.69C100.62 21.69 100.334 21.6987 99.9522 21.716C99.5709 21.7334 99.1722 21.7767 98.7562 21.846C98.3576 21.9154 98.0196 22.028 97.7422 22.184C97.4649 22.34 97.3262 22.5654 97.3262 22.86C97.3262 23.224 97.5429 23.4927 97.9762 23.666C98.4096 23.8394 98.9729 23.9694 99.6662 24.056C100.377 24.1427 101.14 24.238 101.954 24.342C102.821 24.446 103.644 24.576 104.424 24.732C105.222 24.888 105.924 25.122 106.53 25.434C107.154 25.7287 107.64 26.136 107.986 26.656C108.333 27.176 108.506 27.852 108.506 28.684C108.506 29.5507 108.324 30.2874 107.96 30.894C107.596 31.4834 107.068 31.96 106.374 32.324C105.698 32.6707 104.866 32.922 103.878 33.078C102.908 33.234 101.824 33.312 100.628 33.312Z" fill="white"/>
<path d="M116.946 33.312C115.888 33.312 115.013 33.182 114.32 32.922C113.644 32.6447 113.141 32.1854 112.812 31.544C112.482 30.8854 112.318 29.9927 112.318 28.866V22.262H109.666V19.298H112.448L113.254 15.242H116.374V19.298H120.144V22.262H116.374V28.346C116.374 29.0047 116.495 29.5074 116.738 29.854C116.998 30.1834 117.544 30.348 118.376 30.348H120.144V32.87C119.901 32.9567 119.58 33.0347 119.182 33.104C118.8 33.1734 118.402 33.2254 117.986 33.26C117.587 33.2947 117.24 33.312 116.946 33.312Z" fill="white"/>
<path d="M122.529 17.192V14.176H126.585V17.192H122.529ZM122.529 33V19.298H126.585V33H122.529Z" fill="white"/>
<path d="M137.763 33.312C135.96 33.312 134.409 33.052 133.109 32.532C131.826 31.9947 130.838 31.1974 130.145 30.14C129.452 29.0654 129.105 27.7307 129.105 26.136C129.105 24.5414 129.452 23.2154 130.145 22.158C130.838 21.1007 131.826 20.312 133.109 19.792C134.409 19.2547 135.96 18.986 137.763 18.986C138.89 18.986 139.947 19.1074 140.935 19.35C141.94 19.5754 142.816 19.9307 143.561 20.416C144.306 20.884 144.887 21.4734 145.303 22.184C145.719 22.8947 145.927 23.7267 145.927 24.68H141.819C141.819 24.0907 141.637 23.5967 141.273 23.198C140.909 22.7994 140.415 22.496 139.791 22.288C139.184 22.0627 138.508 21.95 137.763 21.95C136.81 21.95 136.004 22.106 135.345 22.418C134.686 22.73 134.184 23.1807 133.837 23.77C133.49 24.342 133.317 25.044 133.317 25.876V26.396C133.317 27.2107 133.49 27.9127 133.837 28.502C134.201 29.0914 134.721 29.5507 135.397 29.88C136.09 30.192 136.931 30.348 137.919 30.348C138.647 30.348 139.314 30.2354 139.921 30.01C140.545 29.7674 141.039 29.438 141.403 29.022C141.784 28.606 141.975 28.1294 141.975 27.592H145.927C145.927 28.5627 145.71 29.412 145.277 30.14C144.861 30.8507 144.28 31.44 143.535 31.908C142.807 32.376 141.94 32.7314 140.935 32.974C139.947 33.1994 138.89 33.312 137.763 33.312Z" fill="white"/>
<path d="M152.483 33L146.763 19.298H151.131L153.549 25.824C153.688 26.2054 153.818 26.578 153.939 26.942C154.061 27.306 154.165 27.644 154.251 27.956C154.355 28.2507 154.425 28.4934 154.459 28.684H154.667C154.719 28.4934 154.789 28.2507 154.875 27.956C154.979 27.6614 155.092 27.332 155.213 26.968C155.335 26.604 155.456 26.2314 155.577 25.85L157.761 19.298H162.285L164.469 25.85C164.521 25.9887 164.591 26.2314 164.677 26.578C164.781 26.9074 164.885 27.2627 164.989 27.644C165.111 28.008 165.223 28.3547 165.327 28.684H165.535C165.605 28.4067 165.691 28.0947 165.795 27.748C165.917 27.384 166.038 27.0374 166.159 26.708C166.281 26.3614 166.376 26.0754 166.445 25.85L168.837 19.298H172.919L167.199 33H163.169L161.037 26.76C160.916 26.3614 160.786 25.9627 160.647 25.564C160.509 25.148 160.379 24.758 160.257 24.394C160.136 24.03 160.041 23.7354 159.971 23.51H159.789C159.703 23.77 159.59 24.0907 159.451 24.472C159.33 24.836 159.209 25.226 159.087 25.642C158.966 26.0407 158.845 26.422 158.723 26.786L156.643 33H152.483Z" fill="white"/>
<path d="M179.388 33.312C178.556 33.312 177.785 33.2427 177.074 33.104C176.363 32.9827 175.739 32.7747 175.202 32.48C174.665 32.168 174.24 31.752 173.928 31.232C173.633 30.712 173.486 30.0534 173.486 29.256C173.486 28.164 173.789 27.306 174.396 26.682C175.003 26.0407 175.852 25.5814 176.944 25.304C178.053 25.0267 179.345 24.8534 180.818 24.784C182.309 24.6974 183.929 24.654 185.68 24.654V24.16C185.68 23.588 185.541 23.1374 185.264 22.808C184.987 22.4787 184.562 22.2447 183.99 22.106C183.435 21.95 182.707 21.872 181.806 21.872C181.13 21.872 180.506 21.924 179.934 22.028C179.379 22.1147 178.937 22.262 178.608 22.47C178.279 22.6607 178.114 22.912 178.114 23.224V23.484H174.032C174.015 23.4147 173.997 23.354 173.98 23.302C173.98 23.2327 173.98 23.1547 173.98 23.068C173.98 22.2534 174.283 21.5427 174.89 20.936C175.497 20.312 176.398 19.8354 177.594 19.506C178.807 19.1594 180.307 18.986 182.092 18.986C183.756 18.986 185.151 19.1334 186.278 19.428C187.422 19.7227 188.289 20.208 188.878 20.884C189.467 21.56 189.762 22.4614 189.762 23.588V29.334C189.762 29.646 189.823 29.8974 189.944 30.088C190.083 30.2614 190.308 30.348 190.62 30.348H191.972V32.844C191.764 32.9307 191.417 33.026 190.932 33.13C190.447 33.2514 189.909 33.312 189.32 33.312C188.523 33.312 187.89 33.2167 187.422 33.026C186.971 32.8527 186.642 32.61 186.434 32.298C186.226 31.9687 186.079 31.6134 185.992 31.232H185.784C185.299 31.6654 184.718 32.038 184.042 32.35C183.383 32.662 182.664 32.896 181.884 33.052C181.104 33.2254 180.272 33.312 179.388 33.312ZM180.454 30.426C180.939 30.426 181.477 30.374 182.066 30.27C182.673 30.1487 183.253 29.984 183.808 29.776C184.363 29.5507 184.813 29.2734 185.16 28.944C185.507 28.6147 185.68 28.216 185.68 27.748V27.02C183.825 27.02 182.3 27.0894 181.104 27.228C179.908 27.3667 179.015 27.5834 178.426 27.878C177.837 28.1727 177.542 28.5887 177.542 29.126C177.542 29.49 177.681 29.7674 177.958 29.958C178.253 30.1314 178.625 30.2527 179.076 30.322C179.527 30.3914 179.986 30.426 180.454 30.426Z" fill="white"/>
<path d="M193.243 33V19.298H196.519L196.805 21.664H197.013C197.239 21.1614 197.542 20.7107 197.923 20.312C198.322 19.896 198.79 19.5754 199.327 19.35C199.865 19.1074 200.471 18.986 201.147 18.986C201.459 18.986 201.771 19.012 202.083 19.064C202.395 19.0987 202.682 19.1594 202.941 19.246V22.652H200.939C200.281 22.652 199.717 22.7647 199.249 22.99C198.799 23.198 198.426 23.4927 198.131 23.874C197.854 24.238 197.646 24.654 197.507 25.122C197.369 25.5727 197.299 26.0494 197.299 26.552V33H193.243Z" fill="white"/>
<path d="M212.443 33.312C210.623 33.312 209.054 33.0607 207.737 32.558C206.419 32.038 205.397 31.2494 204.669 30.192C203.958 29.1347 203.603 27.7914 203.603 26.162C203.603 24.5674 203.949 23.2414 204.643 22.184C205.353 21.1094 206.359 20.312 207.659 19.792C208.976 19.2547 210.519 18.986 212.287 18.986C214.141 18.986 215.71 19.246 216.993 19.766C218.275 20.286 219.246 21.0574 219.905 22.08C220.563 23.1027 220.893 24.368 220.893 25.876V27.072H207.867C207.919 27.8694 208.135 28.5194 208.517 29.022C208.898 29.5074 209.427 29.8627 210.103 30.088C210.796 30.3134 211.602 30.426 212.521 30.426C212.937 30.426 213.37 30.3827 213.821 30.296C214.289 30.192 214.722 30.0534 215.121 29.88C215.537 29.7067 215.883 29.49 216.161 29.23C216.438 28.9527 216.594 28.6234 216.629 28.242H220.789C220.789 28.97 220.598 29.646 220.217 30.27C219.835 30.894 219.281 31.4314 218.553 31.882C217.825 32.3327 216.941 32.688 215.901 32.948C214.878 33.1907 213.725 33.312 212.443 33.312ZM207.893 24.602H216.551C216.551 24.1514 216.447 23.7614 216.239 23.432C216.031 23.0854 215.727 22.7994 215.329 22.574C214.947 22.3314 214.505 22.158 214.003 22.054C213.5 21.9327 212.954 21.872 212.365 21.872C211.515 21.872 210.761 21.9847 210.103 22.21C209.461 22.418 208.95 22.73 208.569 23.146C208.205 23.5447 207.979 24.03 207.893 24.602Z" fill="white"/>
</g>
</svg>
