<svg width="191" height="48" viewBox="0 0 191 48" fill="none" xmlns="http://www.w3.org/2000/svg">
<g opacity="0.84">
<rect y="37" width="7" height="7" fill="white"/>
<rect opacity="0.6" x="7" y="37" width="7" height="7" fill="white"/>
<rect opacity="0.32" x="14" y="37" width="7" height="7" fill="white"/>
<rect opacity="0.07" x="21" y="37" width="7" height="7" fill="white"/>
<rect opacity="0.6" y="30" width="7" height="7" fill="white"/>
<rect opacity="0.32" x="7" y="30" width="7" height="7" fill="white"/>
<rect opacity="0.07" x="7" y="23" width="7" height="7" fill="white"/>
<rect opacity="0.07" x="14" y="30" width="7" height="7" fill="white"/>
<rect opacity="0.32" y="23" width="7" height="7" fill="white"/>
<rect opacity="0.07" y="16" width="7" height="7" fill="white"/>
<rect x="33" y="4" width="7" height="7" fill="white"/>
<rect opacity="0.6" x="33" y="11" width="7" height="7" fill="white"/>
<rect opacity="0.32" x="26" y="11" width="7" height="7" fill="white"/>
<rect opacity="0.07" x="19" y="11" width="7" height="7" fill="white"/>
<rect opacity="0.32" x="33" y="18" width="7" height="7" fill="white"/>
<rect opacity="0.07" x="26" y="18" width="7" height="7" fill="white"/>
<rect opacity="0.07" x="33" y="25" width="7" height="7" fill="white"/>
<rect opacity="0.6" x="26" y="4" width="7" height="7" fill="white"/>
<rect opacity="0.32" x="19" y="4" width="7" height="7" fill="white"/>
<rect opacity="0.07" x="12" y="4" width="7" height="7" fill="white"/>
</g>
<g opacity="0.84">
<path d="M57.14 32.9999L50 12.5879H54.872L58.848 25.1879L59.968 28.8559H60.164L61.256 25.1879L65.26 12.5879H70.132L63.02 32.9999H57.14Z" fill="white"/>
<path d="M76.4038 33.2519C74.9104 33.2519 73.5944 32.9439 72.4558 32.3279C71.3171 31.7119 70.4304 30.8252 69.7958 29.6679C69.1798 28.5106 68.8718 27.1199 68.8718 25.4959C68.8718 23.9466 69.1704 22.5932 69.7678 21.4359C70.3651 20.2599 71.2238 19.3452 72.3438 18.6919C73.4638 18.0386 74.8171 17.7119 76.4038 17.7119C77.8971 17.7119 79.2038 18.0199 80.3238 18.6359C81.4624 19.2519 82.3398 20.1479 82.9558 21.3239C83.5905 22.4812 83.9078 23.8719 83.9078 25.4959C83.9078 27.0452 83.6091 28.4079 83.0118 29.5839C82.4145 30.7412 81.5558 31.6466 80.4358 32.2999C79.3344 32.9346 77.9904 33.2519 76.4038 33.2519ZM76.3758 29.9199C77.3838 29.9199 78.1958 29.5559 78.8118 28.8279C79.4278 28.0999 79.7358 26.9892 79.7358 25.4959C79.7358 24.0026 79.4371 22.8919 78.8398 22.1639C78.2424 21.4359 77.4304 21.0719 76.4038 21.0719C75.3771 21.0719 74.5558 21.4359 73.9398 22.1639C73.3238 22.8919 73.0158 24.0026 73.0158 25.4959C73.0158 26.9706 73.3144 28.0812 73.9118 28.8279C74.5278 29.5559 75.3491 29.9199 76.3758 29.9199Z" fill="white"/>
<path d="M83.1912 32.9999L88.8192 25.2999L83.6952 17.9919H88.5952L91.5912 22.4999H91.7592L94.7272 17.9919H99.4032L94.4192 25.1879L99.9352 32.9999H95.0912L91.6192 27.9039H91.4512L87.8112 32.9999H83.1912Z" fill="white"/>
<path d="M106.7 33.2519C105.132 33.2519 103.788 32.9346 102.668 32.2999C101.567 31.6652 100.718 30.7786 100.12 29.6399C99.5231 28.4826 99.2244 27.1386 99.2244 25.6079C99.2244 23.9839 99.5231 22.5839 100.12 21.4079C100.736 20.2319 101.595 19.3266 102.696 18.6919C103.798 18.0386 105.086 17.7119 106.56 17.7119C108.296 17.7119 109.724 18.0946 110.844 18.8599C111.964 19.6066 112.767 20.6426 113.252 21.9679C113.738 23.2746 113.896 24.7586 113.728 26.4199H103.284C103.266 27.6146 103.574 28.5386 104.208 29.1919C104.843 29.8266 105.674 30.1439 106.7 30.1439C107.484 30.1439 108.147 29.9759 108.688 29.6399C109.248 29.2852 109.603 28.8186 109.752 28.2399H113.644C113.514 29.2479 113.131 30.1252 112.496 30.8719C111.88 31.6186 111.078 32.2066 110.088 32.6359C109.099 33.0466 107.97 33.2519 106.7 33.2519ZM106.56 20.8199C105.627 20.8199 104.871 21.0906 104.292 21.6319C103.714 22.1546 103.387 22.8732 103.312 23.7879H109.696C109.64 22.7799 109.314 22.0332 108.716 21.5479C108.138 21.0626 107.419 20.8199 106.56 20.8199Z" fill="white"/>
<path d="M115.857 32.9999V12.5879H119.973V32.9999H115.857Z" fill="white"/>
<path d="M128.802 32.9999V12.5879H133.171V29.1359H142.243V32.9999H128.802Z" fill="white"/>
<path d="M148.613 33.2519C146.821 33.2519 145.374 32.6079 144.273 31.3199C143.172 30.0132 142.621 28.0719 142.621 25.4959C142.621 22.9012 143.172 20.9599 144.273 19.6719C145.374 18.3652 146.821 17.7119 148.613 17.7119C149.77 17.7119 150.76 17.9732 151.581 18.4959C152.421 19.0186 153.018 19.7186 153.373 20.5959H153.597L153.765 17.9919H157.713V32.9999H153.597V30.3679H153.373C153.018 31.2266 152.421 31.9266 151.581 32.4679C150.76 32.9906 149.77 33.2519 148.613 33.2519ZM150.181 29.9199C150.946 29.9199 151.572 29.7426 152.057 29.3879C152.561 29.0332 152.934 28.5759 153.177 28.0159C153.42 27.4372 153.541 26.8306 153.541 26.1959V24.7679C153.541 24.1146 153.42 23.5079 153.177 22.9479C152.934 22.3879 152.561 21.9306 152.057 21.5759C151.572 21.2212 150.946 21.0439 150.181 21.0439C149.173 21.0439 148.361 21.4079 147.745 22.1359C147.129 22.8452 146.821 23.9652 146.821 25.4959C146.821 27.0079 147.129 28.1279 147.745 28.8559C148.361 29.5652 149.173 29.9199 150.181 29.9199Z" fill="white"/>
<path d="M169.776 33.2799C168.619 33.2799 167.62 33.0186 166.78 32.4959C165.959 31.9546 165.371 31.2546 165.016 30.3959H164.792L164.624 32.9999H160.676V12.5879H164.792V20.5959H165.016C165.371 19.7186 165.959 19.0186 166.78 18.4959C167.62 17.9732 168.619 17.7119 169.776 17.7119C171.568 17.7119 173.015 18.3652 174.116 19.6719C175.217 20.9599 175.768 22.9012 175.768 25.4959C175.768 28.0719 175.217 30.0132 174.116 31.3199C173.015 32.6266 171.568 33.2799 169.776 33.2799ZM168.208 29.9479C169.216 29.9479 170.028 29.5932 170.644 28.8839C171.26 28.1559 171.568 27.0266 171.568 25.4959C171.568 23.9652 171.26 22.8452 170.644 22.1359C170.028 21.4079 169.216 21.0439 168.208 21.0439C167.443 21.0439 166.808 21.2212 166.304 21.5759C165.8 21.9306 165.427 22.3972 165.184 22.9759C164.941 23.5359 164.82 24.1332 164.82 24.7679V26.2239C164.82 26.8586 164.941 27.4652 165.184 28.0439C165.427 28.6039 165.8 29.0612 166.304 29.4159C166.808 29.7706 167.443 29.9479 168.208 29.9479Z" fill="white"/>
<path d="M183.855 33.2799C181.671 33.2799 179.981 32.8226 178.787 31.9079C177.611 30.9746 177.032 29.7612 177.051 28.2679H181.083C181.101 29.0706 181.381 29.6492 181.923 30.0039C182.483 30.3399 183.164 30.5079 183.967 30.5079C184.807 30.5079 185.441 30.3679 185.871 30.0879C186.3 29.7892 186.515 29.3879 186.515 28.8839C186.515 28.1932 186.263 27.7452 185.759 27.5399C185.273 27.3346 184.499 27.1572 183.435 27.0079C182.333 26.8586 181.325 26.6439 180.411 26.3639C179.496 26.0652 178.768 25.6172 178.227 25.0199C177.704 24.4226 177.443 23.5732 177.443 22.4719C177.443 20.8852 178.04 19.6999 179.235 18.9159C180.448 18.1132 182.035 17.7119 183.995 17.7119C185.917 17.7119 187.448 18.1319 188.587 18.9719C189.725 19.7932 190.313 20.9506 190.351 22.4439H186.319C186.319 21.8092 186.095 21.3239 185.647 20.9879C185.217 20.6519 184.629 20.4839 183.883 20.4839C183.117 20.4839 182.539 20.6332 182.147 20.9319C181.755 21.2119 181.559 21.5852 181.559 22.0519C181.559 22.6119 181.811 23.0039 182.315 23.2279C182.819 23.4519 183.621 23.6386 184.723 23.7879C185.507 23.8999 186.253 24.0399 186.963 24.2079C187.672 24.3572 188.297 24.5999 188.839 24.9359C189.399 25.2532 189.837 25.7012 190.155 26.2799C190.491 26.8399 190.659 27.5772 190.659 28.4919C190.659 30.1346 190.052 31.3479 188.839 32.1319C187.625 32.8972 185.964 33.2799 183.855 33.2799Z" fill="white"/>
</g>
</svg>
