<svg width="163" height="48" viewBox="0 0 163 48" fill="none" xmlns="http://www.w3.org/2000/svg">
<g opacity="0.84">
<path d="M21.3333 18.6667V8H0V18.6667L21.3333 18.6667Z" fill="white"/>
<path d="M21.3329 29.3332C15.4419 29.3332 10.6662 34.1089 10.6662 39.9999L0.00130319 40.0003L0.00130319 39.725C0.147896 28.1153 9.56836 18.7403 21.1956 18.667L32 18.6675V40.0008H21.3333L21.3329 29.3332Z" fill="white"/>
</g>
<g opacity="0.84">
<path d="M42.002 32.9999V13.3169H47.078V28.5179H55.961V32.9999H42.002Z" fill="white"/>
<path d="M64.363 33.2699C62.725 33.2699 61.357 32.9639 60.259 32.3519C59.161 31.7219 58.333 30.8399 57.775 29.7059C57.235 28.5719 56.965 27.2579 56.965 25.7639V25.4669C56.965 23.8829 57.262 22.5509 57.856 21.4709C58.45 20.3729 59.269 19.5359 60.313 18.9599C61.375 18.3839 62.59 18.0959 63.958 18.0959C65.488 18.0959 66.784 18.3839 67.846 18.9599C68.926 19.5179 69.745 20.3099 70.303 21.3359C70.861 22.3439 71.14 23.5319 71.14 24.8999V26.8979H61.798V27.5729C61.798 28.1849 62.023 28.6889 62.473 29.0849C62.923 29.4809 63.499 29.6789 64.201 29.6789C64.831 29.6789 65.344 29.5529 65.74 29.3009C66.136 29.0309 66.37 28.6799 66.442 28.2479H70.978C70.924 29.2379 70.609 30.1109 70.033 30.8669C69.457 31.6229 68.683 32.2169 67.711 32.6489C66.739 33.0629 65.623 33.2699 64.363 33.2699ZM61.798 23.8739V24.0089H66.442V23.8739C66.442 23.0999 66.226 22.5329 65.794 22.1729C65.362 21.7949 64.804 21.6059 64.12 21.6059C63.436 21.6059 62.878 21.8039 62.446 22.1999C62.014 22.5779 61.798 23.1359 61.798 23.8739Z" fill="white"/>
<path d="M77.781 33.2699C76.467 33.2699 75.396 32.9729 74.568 32.3789C73.758 31.7849 73.164 30.9479 72.786 29.8679C72.408 28.7699 72.219 27.5009 72.219 26.0609V25.3589C72.219 22.7849 72.723 20.9399 73.731 19.8239C74.739 18.6899 76.089 18.1229 77.781 18.1229C78.699 18.1229 79.527 18.3209 80.265 18.7169C81.021 19.0949 81.579 19.6529 81.939 20.3909H82.155L82.398 18.3659H86.907V32.9999H82.155V31.0019H81.939C81.579 31.7219 81.021 32.2799 80.265 32.6759C79.527 33.0719 78.699 33.2699 77.781 33.2699ZM79.725 29.4089C80.463 29.4089 81.048 29.1929 81.48 28.7609C81.912 28.3289 82.128 27.6989 82.128 26.8709V24.4949C82.128 23.6849 81.912 23.0639 81.48 22.6319C81.048 22.1819 80.463 21.9569 79.725 21.9569C78.951 21.9569 78.348 22.1819 77.916 22.6319C77.502 23.0819 77.295 23.7029 77.295 24.4949V26.9249C77.295 27.6989 77.502 28.3109 77.916 28.7609C78.348 29.1929 78.951 29.4089 79.725 29.4089Z" fill="white"/>
<path d="M89.708 37.5089V18.3659H94.217L94.487 20.3909H94.703C95.063 19.6529 95.612 19.0949 96.35 18.7169C97.106 18.3209 97.943 18.1229 98.861 18.1229C100.193 18.1229 101.264 18.4199 102.074 19.0139C102.884 19.6079 103.478 20.4539 103.856 21.5519C104.234 22.6319 104.423 23.9009 104.423 25.3589V26.0609C104.423 28.6169 103.919 30.4619 102.911 31.5959C101.903 32.7119 100.553 33.2699 98.861 33.2699C97.943 33.2699 97.106 33.0719 96.35 32.6759C95.612 32.2799 95.063 31.7219 94.703 31.0019H94.487V37.5089H89.708ZM96.917 29.4089C97.691 29.4089 98.285 29.1929 98.699 28.7609C99.131 28.3109 99.347 27.6989 99.347 26.9249V24.4949C99.347 23.7029 99.131 23.0819 98.699 22.6319C98.285 22.1819 97.691 21.9569 96.917 21.9569C96.197 21.9569 95.612 22.1819 95.162 22.6319C94.73 23.0639 94.514 23.6849 94.514 24.4949V26.8709C94.514 27.6989 94.73 28.3289 95.162 28.7609C95.612 29.1929 96.197 29.4089 96.917 29.4089Z" fill="white"/>
<path d="M104.945 37.5089V33.7829H110.021V31.4069L104.27 18.3659H109.238L111.83 25.7639L112.262 27.1679H112.397L112.829 25.7639L115.529 18.3659H120.47L114.773 31.4069V34.5659C114.773 35.5559 114.485 36.2939 113.909 36.7799C113.351 37.2659 112.604 37.5089 111.668 37.5089H104.945Z" fill="white"/>
<path d="M127.541 33.2699C125.903 33.2699 124.535 32.9639 123.437 32.3519C122.339 31.7219 121.511 30.8399 120.953 29.7059C120.413 28.5719 120.143 27.2579 120.143 25.7639V25.4669C120.143 23.8829 120.44 22.5509 121.034 21.4709C121.628 20.3729 122.447 19.5359 123.491 18.9599C124.553 18.3839 125.768 18.0959 127.136 18.0959C128.666 18.0959 129.962 18.3839 131.024 18.9599C132.104 19.5179 132.923 20.3099 133.481 21.3359C134.039 22.3439 134.318 23.5319 134.318 24.8999V26.8979H124.976V27.5729C124.976 28.1849 125.201 28.6889 125.651 29.0849C126.101 29.4809 126.677 29.6789 127.379 29.6789C128.009 29.6789 128.522 29.5529 128.918 29.3009C129.314 29.0309 129.548 28.6799 129.62 28.2479H134.156C134.102 29.2379 133.787 30.1109 133.211 30.8669C132.635 31.6229 131.861 32.2169 130.889 32.6489C129.917 33.0629 128.801 33.2699 127.541 33.2699ZM124.976 23.8739V24.0089H129.62V23.8739C129.62 23.0999 129.404 22.5329 128.972 22.1729C128.54 21.7949 127.982 21.6059 127.298 21.6059C126.614 21.6059 126.056 21.8039 125.624 22.1999C125.192 22.5779 124.976 23.1359 124.976 23.8739Z" fill="white"/>
<path d="M140.959 33.2699C139.645 33.2699 138.574 32.9729 137.746 32.3789C136.936 31.7849 136.342 30.9479 135.964 29.8679C135.586 28.7699 135.397 27.5009 135.397 26.0609V25.3589C135.397 22.7849 135.901 20.9399 136.909 19.8239C137.917 18.6899 139.267 18.1229 140.959 18.1229C141.877 18.1229 142.705 18.3209 143.443 18.7169C144.199 19.0949 144.757 19.6529 145.117 20.3909H145.333L145.576 18.3659H150.085V32.9999H145.333V31.0019H145.117C144.757 31.7219 144.199 32.2799 143.443 32.6759C142.705 33.0719 141.877 33.2699 140.959 33.2699ZM142.903 29.4089C143.641 29.4089 144.226 29.1929 144.658 28.7609C145.09 28.3289 145.306 27.6989 145.306 26.8709V24.4949C145.306 23.6849 145.09 23.0639 144.658 22.6319C144.226 22.1819 143.641 21.9569 142.903 21.9569C142.129 21.9569 141.526 22.1819 141.094 22.6319C140.68 23.0819 140.473 23.7029 140.473 24.4949V26.9249C140.473 27.6989 140.68 28.3109 141.094 28.7609C141.526 29.1929 142.129 29.4089 142.903 29.4089Z" fill="white"/>
<path d="M152.886 32.9999V21.9569C152.886 20.8769 153.21 20.0129 153.858 19.3649C154.524 18.6989 155.388 18.3659 156.45 18.3659H162.39V22.1999H157.665V32.9999H152.886Z" fill="white"/>
</g>
</svg>
