<svg width="222" height="48" viewBox="0 0 222 48" fill="none" xmlns="http://www.w3.org/2000/svg">
<g opacity="0.84">
<path d="M16 4C16 12.8366 8.83656 20 0 20C4.90695 20 9.46995 21.4726 13.2712 24C19.738 19.7003 24 12.3479 24 4H16Z" fill="white"/>
<path opacity="0.8" d="M40 20C31.1634 20 24 12.8366 24 4C24 8.90695 22.5274 13.47 20 17.2712C24.2997 23.738 31.6521 28 40 28V20Z" fill="white"/>
<path opacity="0.6" d="M24 44C24 35.1634 31.1634 28 40 28C35.0931 28 30.53 26.5274 26.7288 24C20.262 28.2997 16 35.6521 16 44H24Z" fill="white"/>
<path opacity="0.4" d="M3.49686e-07 28C8.83656 28 16 35.1634 16 44C16 39.0931 17.4726 34.53 20 30.7288C15.7003 24.262 8.34788 20 0 20L3.49686e-07 28Z" fill="white"/>
</g>
<g opacity="0.84">
<path d="M54.563 33.0002H50V13.7762H54.563V33.0002Z" fill="white"/>
<path d="M73.4453 18.7442C74.9753 18.7442 76.1723 19.2032 77.0363 20.1212C77.9003 21.0212 78.3323 22.2992 78.3323 23.9552V33.0002H74.1203V24.6842C74.1203 23.1182 73.4273 22.3352 72.0413 22.3352C71.3033 22.3352 70.7183 22.5872 70.2863 23.0912C69.8543 23.5952 69.6383 24.3332 69.6383 25.3052V33.0002H65.4263V24.6842C65.4263 23.1182 64.7333 22.3352 63.3473 22.3352C62.6093 22.3352 62.0153 22.5872 61.5653 23.0912C61.1333 23.5952 60.9173 24.3332 60.9173 25.3052V33.0002H56.7053V19.0682H61.06L60.8093 21.0392C61.8353 19.5092 63.1583 18.7442 64.7783 18.7442C66.8663 18.7442 68.3063 19.5812 69.0983 21.2552C70.2323 19.5812 71.6813 18.7442 73.4453 18.7442Z" fill="white"/>
<path d="M89.9052 20.9042L89.66 19.0682H94.0092V32.5682C94.0092 34.4582 93.3792 35.9342 92.1192 36.9962C90.8772 38.0762 89.1312 38.6162 86.8812 38.6162C84.8112 38.6162 83.1912 38.1572 82.0212 37.2392C80.8512 36.3392 80.2212 35.0972 80.1312 33.5132H84.2892C84.3972 34.8092 85.2882 35.4572 86.9622 35.4572C87.8802 35.4572 88.5822 35.2142 89.0682 34.7282C89.5542 34.2602 89.7972 33.5942 89.7972 32.7302V30.7322C88.9152 32.0462 87.5832 32.7032 85.8012 32.7032C83.9652 32.7032 82.4802 32.0552 81.3462 30.7592C80.2122 29.4632 79.6452 27.7802 79.6452 25.7102C79.6452 23.6582 80.2032 21.9752 81.3192 20.6612C82.4352 19.3832 83.9022 18.7442 85.7202 18.7442C87.5922 18.7442 88.9872 19.4642 89.9052 20.9042ZM86.8812 29.3282C87.8352 29.3282 88.5732 29.0222 89.0952 28.4102C89.6172 27.7802 89.8782 26.8802 89.8782 25.7102C89.8782 24.5402 89.6172 23.6492 89.0952 23.0372C88.5912 22.4252 87.8532 22.1192 86.8812 22.1192C85.9452 22.1192 85.2162 22.4432 84.6942 23.0912C84.1722 23.7212 83.9112 24.6122 83.9112 25.7642C83.9112 26.8982 84.1722 27.7802 84.6942 28.4102C85.2162 29.0222 85.9452 29.3282 86.8812 29.3282Z" fill="white"/>
<path d="M104.906 33.4322C102.044 33.4322 99.731 32.5232 97.967 30.7052C96.203 28.8872 95.321 26.4482 95.321 23.3882C95.321 20.2922 96.185 17.8442 97.913 16.0442C99.641 14.2442 101.972 13.3442 104.906 13.3442C107.282 13.3442 109.298 13.9742 110.954 15.2342C112.646 16.5122 113.663 18.3212 114.005 20.6612H109.388C109.1 19.5812 108.56 18.7532 107.768 18.1772C106.994 17.5832 106.04 17.2862 104.906 17.2862C103.358 17.2862 102.161 17.8172 101.315 18.8792C100.487 19.9412 100.073 21.4442 100.073 23.3882C100.073 25.3322 100.487 26.8352 101.315 27.8972C102.161 28.9592 103.358 29.4902 104.906 29.4902C106.094 29.4902 107.102 29.1482 107.93 28.4642C108.758 27.7802 109.28 26.8262 109.496 25.6022H114.059C113.771 28.0862 112.79 30.0122 111.116 31.3802C109.424 32.7482 107.354 33.4322 104.906 33.4322Z" fill="white"/>
<path d="M127.43 31.3262C126.098 32.6582 124.325 33.3242 122.111 33.3242C119.897 33.3242 118.124 32.6582 116.792 31.3262C115.46 29.9942 114.794 28.2302 114.794 26.0342C114.794 23.8202 115.46 22.0472 116.792 20.7152C118.106 19.4012 119.879 18.7442 122.111 18.7442C124.343 18.7442 126.116 19.4012 127.43 20.7152C128.744 22.0292 129.401 23.8022 129.401 26.0342C129.401 28.2482 128.744 30.0122 127.43 31.3262ZM122.111 29.9492C123.083 29.9492 123.83 29.6162 124.352 28.9502C124.874 28.2842 125.135 27.3122 125.135 26.0342C125.135 24.7562 124.874 23.7842 124.352 23.1182C123.83 22.4522 123.083 22.1192 122.111 22.1192C121.121 22.1192 120.365 22.4522 119.843 23.1182C119.321 23.7842 119.06 24.7562 119.06 26.0342C119.06 27.3122 119.321 28.2842 119.843 28.9502C120.365 29.6162 121.121 29.9492 122.111 29.9492Z" fill="white"/>
<path d="M147.46 18.7442C148.99 18.7442 150.187 19.2032 151.051 20.1212C151.915 21.0212 152.347 22.2992 152.347 23.9552V33.0002H148.135V24.6842C148.135 23.1182 147.442 22.3352 146.056 22.3352C145.318 22.3352 144.733 22.5872 144.301 23.0912C143.869 23.5952 143.653 24.3332 143.653 25.3052V33.0002H139.441V24.6842C139.441 23.1182 138.748 22.3352 137.362 22.3352C136.624 22.3352 136.03 22.5872 135.58 23.0912C135.148 23.5952 134.932 24.3332 134.932 25.3052V33.0002H130.72V19.0682H135.07L134.824 21.0392C135.85 19.5092 137.173 18.7442 138.793 18.7442C140.881 18.7442 142.321 19.5812 143.113 21.2552C144.247 19.5812 145.696 18.7442 147.46 18.7442Z" fill="white"/>
<path d="M162.543 18.7442C164.415 18.7442 165.9 19.4012 166.998 20.7152C168.078 22.0292 168.618 23.8022 168.618 26.0342C168.618 28.2662 168.078 30.0392 166.998 31.3532C165.9 32.6672 164.415 33.3242 162.543 33.3242C160.761 33.3242 159.393 32.6492 158.439 31.2992V38.2922H154.227V19.0682H158.58L158.331 20.9312C159.285 19.4732 160.689 18.7442 162.543 18.7442ZM161.382 29.9492C162.318 29.9492 163.047 29.6072 163.569 28.9232C164.091 28.2212 164.352 27.2222 164.352 25.9262C164.352 23.3882 163.362 22.1192 161.382 22.1192C159.384 22.1192 158.385 23.4242 158.385 26.0342C158.385 28.6442 159.384 29.9492 161.382 29.9492Z" fill="white"/>
<path d="M178.002 18.8522C178.074 18.8522 178.38 18.8702 178.92 18.9062V22.7402H177.84C175.374 22.7402 174.141 24.0002 174.141 26.5202V33.0002H169.929V19.0682H174.28L174.033 21.6602C174.681 19.7882 176.004 18.8522 178.002 18.8522Z" fill="white"/>
<path d="M193.364 26.4392V27.2762H183.05C183.194 28.2302 183.545 28.9592 184.103 29.4632C184.661 29.9672 185.372 30.2192 186.236 30.2192C187.604 30.2192 188.54 29.6972 189.044 28.6532H193.04C192.662 30.0932 191.861 31.2362 190.637 32.0822C189.413 32.9102 187.946 33.3242 186.236 33.3242C184.076 33.3242 182.33 32.6582 180.998 31.3262C179.666 29.9942 179 28.2302 179 26.0342C179 23.8202 179.657 22.0562 180.971 20.7422C182.267 19.4102 184.004 18.7442 186.182 18.7442C188.342 18.7442 190.088 19.4372 191.42 20.8232C192.716 22.2272 193.364 24.0992 193.364 26.4392ZM186.128 21.8492C184.4 21.8492 183.383 22.7672 183.077 24.6032H189.233C189.089 23.7392 188.747 23.0642 188.207 22.5782C187.667 22.0922 186.974 21.8492 186.128 21.8492Z" fill="white"/>
<path d="M200.706 33.4052C198.51 33.4052 196.872 33.0272 195.792 32.2712C194.73 31.4972 194.136 30.2642 194.01 28.5722H198.114C198.186 29.3102 198.42 29.8322 198.816 30.1382C199.23 30.4442 199.887 30.5972 200.787 30.5972C202.353 30.5972 203.136 30.1472 203.136 29.2472C203.136 28.8152 202.965 28.4912 202.623 28.2752C202.281 28.0412 201.651 27.8522 200.733 27.7082L198.924 27.4112C195.792 26.9252 194.226 25.5032 194.226 23.1452C194.226 21.7412 194.766 20.6612 195.846 19.9052C196.926 19.1312 198.474 18.7442 200.49 18.7442C204.648 18.7442 206.808 20.3372 206.97 23.5232H203.055C203.037 22.2092 202.182 21.5522 200.49 21.5522C199.068 21.5522 198.357 21.9932 198.357 22.8752C198.357 23.2712 198.519 23.5772 198.843 23.7932C199.167 24.0092 199.68 24.1712 200.382 24.2792L202.461 24.5762C204.135 24.8282 205.368 25.3052 206.16 26.0072C206.952 26.7092 207.348 27.6722 207.348 28.8962C207.348 30.3362 206.763 31.4522 205.593 32.2442C204.441 33.0182 202.812 33.4052 200.706 33.4052Z" fill="white"/>
<path d="M214.642 33.4052C212.446 33.4052 210.808 33.0272 209.728 32.2712C208.666 31.4972 208.072 30.2642 207.946 28.5722H212.05C212.122 29.3102 212.356 29.8322 212.752 30.1382C213.166 30.4442 213.823 30.5972 214.723 30.5972C216.289 30.5972 217.072 30.1472 217.072 29.2472C217.072 28.8152 216.901 28.4912 216.559 28.2752C216.217 28.0412 215.587 27.8522 214.669 27.7082L212.86 27.4112C209.728 26.9252 208.162 25.5032 208.162 23.1452C208.162 21.7412 208.702 20.6612 209.782 19.9052C210.862 19.1312 212.41 18.7442 214.426 18.7442C218.584 18.7442 220.744 20.3372 220.906 23.5232H216.991C216.973 22.2092 216.118 21.5522 214.426 21.5522C213.004 21.5522 212.293 21.9932 212.293 22.8752C212.293 23.2712 212.455 23.5772 212.779 23.7932C213.103 24.0092 213.616 24.1712 214.318 24.2792L216.397 24.5762C218.071 24.8282 219.304 25.3052 220.096 26.0072C220.888 26.7092 221.284 27.6722 221.284 28.8962C221.284 30.3362 220.699 31.4522 219.529 32.2442C218.377 33.0182 216.748 33.4052 214.642 33.4052Z" fill="white"/>
</g>
</svg>
