<svg width="195" height="48" viewBox="0 0 195 48" fill="none" xmlns="http://www.w3.org/2000/svg">
<g opacity="0.84">
<path d="M18.5002 22.9265L35.7649 12.9654L18.5002 3L1.23505 12.9654L18.5002 22.9265Z" fill="white"/>
<path d="M17.265 25.0653L0 15.1043V35.0346L17.265 45V25.0653Z" fill="white"/>
<path opacity="0.5" d="M19.7363 25.0655V45.0002L37.0009 35.0348V15.1045L19.7363 25.0655Z" fill="white"/>
</g>
<g opacity="0.84">
<path d="M61.285 19.07V13.7759H65.848V32.9999H61.285V23.2239H53.563V32.9999H49V13.7759H53.563V19.07H61.285Z" fill="white"/>
<path fill-rule="evenodd" clip-rule="evenodd" d="M81.6839 26.4389V27.2759H71.3699C71.5139 28.2299 71.8649 28.9589 72.4229 29.4629C72.9809 29.9669 73.6919 30.2189 74.5559 30.2189C75.7628 30.2189 76.6335 29.8126 77.1679 29H81.2588C80.8482 30.2777 80.0809 31.305 78.9569 32.0819C77.7329 32.9099 76.2659 33.3239 74.5559 33.3239C72.3959 33.3239 70.6499 32.6579 69.3179 31.3259C67.9859 29.9939 67.3199 28.2299 67.3199 26.0339C67.3199 23.8199 67.9769 22.0559 69.2909 20.7419C70.5869 19.4099 72.3239 18.7439 74.5019 18.7439C76.6619 18.7439 78.4079 19.4369 79.7399 20.8229C81.0359 22.2269 81.6839 24.0989 81.6839 26.4389ZM74.4479 21.8489C72.7199 21.8489 71.7029 22.7669 71.3969 24.6029H77.5529C77.4089 23.7389 77.0669 23.0639 76.5269 22.5779C75.9869 22.0919 75.2939 21.8489 74.4479 21.8489Z" fill="white"/>
<path d="M90.4349 25.8179L95.2409 19.0679H90.5699L90.0569 19.7969C89.4629 20.6609 88.8329 21.6329 88.1669 22.7129C87.8969 22.2809 87.2579 21.3089 86.2499 19.7969L85.7369 19.0679H80.9309L85.7909 25.8719L80.6609 32.9999H85.3589L85.7099 32.4869C86.5739 31.1909 87.3569 30.0209 88.0589 28.9769C89.3189 30.9029 90.0929 32.0729 90.3809 32.4869L90.7319 32.9999H95.5109L90.4349 25.8179Z" fill="white"/>
<path fill-rule="evenodd" clip-rule="evenodd" d="M108.399 32.9999H104.376V31.4339C103.44 32.6939 101.955 33.3239 99.9212 33.3239C98.3912 33.3239 97.1582 32.9459 96.2222 32.1899C95.3042 31.4339 94.8452 30.3899 94.8452 29.0579C94.8452 26.4659 96.6632 25.0169 100.299 24.7109L102.486 24.5219C103.692 24.3959 104.295 23.9369 104.295 23.1449C104.295 22.2089 103.584 21.7409 102.162 21.7409C101.298 21.7409 100.686 21.8759 100.326 22.1459C99.9842 22.3979 99.7772 22.8749 99.7052 23.5769H95.5202C95.7722 20.3549 97.9952 18.7439 102.189 18.7439C106.329 18.7439 108.399 20.1749 108.399 23.0369V32.9999ZM101.19 30.4889C102.144 30.4889 102.9 30.2459 103.458 29.7599C104.016 29.2559 104.295 28.5089 104.295 27.5189V26.4929C104.043 26.7629 103.575 26.9429 102.891 27.0329L101.163 27.2219C99.8132 27.3659 99.1382 27.9239 99.1382 28.8959C99.1382 29.3819 99.3182 29.7689 99.6782 30.0569C100.038 30.3449 100.542 30.4889 101.19 30.4889Z" fill="white"/>
<path d="M122.051 20.0939C121.187 19.1939 120.017 18.7439 118.541 18.7439C116.759 18.7439 115.337 19.4639 114.275 20.9039V13.7759H110.063V32.9999H114.275V25.2239C114.275 24.3059 114.527 23.5949 115.031 23.0909C115.535 22.5869 116.165 22.3349 116.921 22.3349C118.415 22.3349 119.162 23.1269 119.162 24.7109V32.9999H123.374V23.8739C123.374 22.2359 122.933 20.9759 122.051 20.0939Z" fill="white"/>
<path fill-rule="evenodd" clip-rule="evenodd" d="M139.061 26.4389V27.2759H128.747C128.891 28.2299 129.242 28.9589 129.8 29.4629C130.358 29.9669 131.069 30.2189 131.933 30.2189C133.14 30.2189 134.011 29.8126 134.545 29H138.636C138.225 30.2777 137.458 31.305 136.334 32.0819C135.11 32.9099 133.643 33.3239 131.933 33.3239C129.773 33.3239 128.027 32.6579 126.695 31.3259C125.363 29.9939 124.697 28.2299 124.697 26.0339C124.697 23.8199 125.354 22.0559 126.668 20.7419C127.964 19.4099 129.701 18.7439 131.879 18.7439C134.039 18.7439 135.785 19.4369 137.117 20.8229C138.413 22.2269 139.061 24.0989 139.061 26.4389ZM131.825 21.8489C130.097 21.8489 129.08 22.7669 128.774 24.6029H134.93C134.786 23.7389 134.444 23.0639 133.904 22.5779C133.364 22.0919 132.671 21.8489 131.825 21.8489Z" fill="white"/>
<path fill-rule="evenodd" clip-rule="evenodd" d="M150.077 13.7759V20.7419C149.123 19.4099 147.764 18.7439 146 18.7439C144.128 18.7439 142.652 19.4009 141.572 20.7149C140.474 22.0289 139.925 23.8019 139.925 26.0339C139.925 28.2659 140.474 30.0389 141.572 31.3529C142.652 32.6669 144.128 33.3239 146 33.3239C147.854 33.3239 149.249 32.6129 150.185 31.1909V32.9999H154.289V13.7759H150.077ZM150.158 26.0339C150.158 28.6439 149.159 29.9489 147.161 29.9489C145.181 29.9489 144.191 28.6799 144.191 26.1419C144.191 24.8459 144.452 23.8559 144.974 23.1719C145.496 22.4699 146.225 22.1189 147.161 22.1189C149.159 22.1189 150.158 23.4239 150.158 26.0339Z" fill="white"/>
<path d="M164.24 18.8519C164.312 18.8519 164.618 18.8699 165.158 18.9059V22.7399H164.078C161.612 22.7399 160.379 23.9999 160.379 26.5199V32.9999H156.167V19.0679H160.271V21.6599C160.919 19.7879 162.242 18.8519 164.24 18.8519Z" fill="white"/>
<path fill-rule="evenodd" clip-rule="evenodd" d="M172.555 33.3239C174.769 33.3239 176.542 32.6579 177.874 31.3259C179.188 30.0119 179.845 28.2479 179.845 26.0339C179.845 23.8019 179.188 22.0289 177.874 20.7149C176.56 19.4009 174.787 18.7439 172.555 18.7439C170.323 18.7439 168.55 19.4009 167.236 20.7149C165.904 22.0469 165.238 23.8199 165.238 26.0339C165.238 28.2299 165.904 29.9939 167.236 31.3259C168.568 32.6579 170.341 33.3239 172.555 33.3239ZM174.796 28.9499C174.274 29.6159 173.527 29.9489 172.555 29.9489C171.565 29.9489 170.809 29.6159 170.287 28.9499C169.765 28.2839 169.504 27.3119 169.504 26.0339C169.504 24.7559 169.765 23.7839 170.287 23.1179C170.809 22.4519 171.565 22.1189 172.555 22.1189C173.527 22.1189 174.274 22.4519 174.796 23.1179C175.318 23.7839 175.579 24.7559 175.579 26.0339C175.579 27.3119 175.318 28.2839 174.796 28.9499Z" fill="white"/>
<path d="M189.643 18.7439C191.119 18.7439 192.289 19.1939 193.153 20.0939C194.035 20.9759 194.476 22.2359 194.476 23.8739V32.9999H190.264V24.7109C190.264 23.1269 189.517 22.3349 188.023 22.3349C187.267 22.3349 186.637 22.5869 186.133 23.0909C185.629 23.5949 185.377 24.3059 185.377 25.2239V32.9999H181.165V19.0679H185.269V21.0389C186.349 19.5089 187.807 18.7439 189.643 18.7439Z" fill="white"/>
</g>
</svg>
