<svg width="151" height="48" viewBox="0 0 151 48" fill="none" xmlns="http://www.w3.org/2000/svg">
<g opacity="0.84">
<path fill-rule="evenodd" clip-rule="evenodd" d="M24.9512 19.519C24.4388 24.8399 19.9552 29 14.5 29C13.3584 29 12.2594 28.8178 11.2305 28.481C11.7429 23.1601 16.2264 19 21.6816 19C22.8232 19 23.9222 19.1822 24.9512 19.519ZM24.4947 15.2727C23.5847 15.0938 22.6441 15 21.6816 15C14.7557 15 8.96395 19.8558 7.52504 26.3487C5.36239 24.4254 4 21.6218 4 18.5C4 12.701 8.70101 8 14.5 8C19.173 8 23.1331 11.0527 24.4947 15.2727ZM28.9161 16.9309C28.1338 9.66074 21.978 4 14.5 4C6.49187 4 0 10.4919 0 18.5C0 23.8735 2.92292 28.5643 7.26556 31.0691C8.04787 38.3393 14.2037 44 21.6816 44C29.6898 44 36.1816 37.5081 36.1816 29.5C36.1816 24.1265 33.2587 19.4358 28.9161 16.9309ZM28.6566 21.6513C27.2177 28.1442 21.4259 33 14.5 33C13.5375 33 12.597 32.9062 11.687 32.7273C13.0486 36.9473 17.0086 40 21.6816 40C27.4806 40 32.1816 35.299 32.1816 29.5C32.1816 26.3782 30.8193 23.5746 28.6566 21.6513Z" fill="white"/>
</g>
<g opacity="0.84">
<path d="M103.548 33.0002V12.0332H107.579V33.0002H103.548Z" fill="white"/>
<path d="M46 33.0002V12.7002H50.379V33.0002H46Z" fill="white"/>
<path d="M52.5903 33.0002V18.3842H56.6503V20.4142C57.4623 18.9932 59.0863 18.1522 61.0873 18.1522C64.3933 18.1522 66.5392 20.5302 66.5392 23.8942V33.0002H62.4792V24.7932C62.4792 23.0242 61.3483 21.7482 59.6663 21.7482C57.8973 21.7482 56.6503 23.1112 56.6503 24.9962V33.0002H52.5903Z" fill="white"/>
<path d="M73.8004 14.0632H69.7694V18.3842H66.9564V21.7482H69.7694V27.6932C69.7694 31.0862 71.9444 33.0002 75.3084 33.0002H77.7154V29.6072H75.8594C74.5544 29.6072 73.8004 28.9402 73.8004 27.5192V21.7482H77.7154V18.3842H73.8004V14.0632Z" fill="white"/>
<path fill-rule="evenodd" clip-rule="evenodd" d="M88.2503 28.0412H92.1943C91.6143 31.2022 88.8303 33.2322 85.2343 33.2322C80.2753 33.2322 77.7233 29.3462 77.7233 25.6632C77.7233 21.9512 79.9853 18.1522 84.9443 18.1522C90.1063 18.1522 92.1653 21.9512 92.1653 25.2862C92.1653 25.8372 92.1363 26.2722 92.1073 26.5912H81.6093C81.8993 28.6502 83.2043 29.9262 85.2343 29.9262C86.8583 29.9262 87.9313 29.2882 88.2503 28.0412ZM84.9443 21.1102C83.1173 21.1102 82.0153 22.0092 81.6673 24.0392H88.1343C88.0183 22.4152 86.8873 21.1102 84.9443 21.1102Z" fill="white"/>
<path d="M100.193 21.7482H102.6V18.3842H100.947C99.1783 18.3842 98.0763 18.9932 97.2933 20.8202V18.3842H93.2333V33.0002H97.2933V25.8952C97.2933 23.4012 98.1923 21.7482 100.193 21.7482Z" fill="white"/>
<path fill-rule="evenodd" clip-rule="evenodd" d="M108.851 25.6922C108.851 30.0422 112.07 33.2322 116.565 33.2322C118.872 33.2322 120.843 32.3916 122.215 30.985C123.538 32.3823 125.451 33.2322 127.755 33.2322C131.554 33.2322 134.57 30.7962 135.005 27.5482H130.887C130.597 28.8532 129.408 29.7522 127.929 29.7522C125.725 29.7522 124.42 28.0702 124.42 25.6922C124.42 23.3142 125.696 21.6032 127.871 21.6032C129.35 21.6032 130.597 22.5602 130.829 23.8652H134.889C134.628 20.4722 131.583 18.1522 127.755 18.1522C125.451 18.1522 123.538 19.0021 122.215 20.3994C120.843 18.9928 118.872 18.1522 116.565 18.1522C112.07 18.1522 108.851 21.3422 108.851 25.6922ZM120.216 25.5259C120.151 23.1813 118.69 21.6032 116.565 21.6032C114.39 21.6032 112.911 23.2562 112.911 25.6922C112.911 28.0992 114.39 29.7522 116.565 29.7522C118.69 29.7522 120.15 28.1745 120.216 25.8573C120.215 25.8025 120.215 25.7474 120.215 25.6922C120.215 25.6366 120.215 25.5812 120.216 25.5259Z" fill="white"/>
<path d="M141.811 26.8232L145.958 33.0002H150.83L144.537 24.1262L150.366 18.3842H145.262L140.187 23.3722V12.0332H136.127V33.0002H140.187V28.4182L141.811 26.8232Z" fill="white"/>
</g>
</svg>
