<svg width="147" height="48" viewBox="0 0 147 48" fill="none" xmlns="http://www.w3.org/2000/svg">
<g opacity="0.84">
<path opacity="0.5" d="M0 14.5265V33.4739L17.8947 21.2301V2.28271L0 14.5265Z" fill="white"/>
<path opacity="0.5" d="M0 33.4738V14.5264L17.8947 26.7702V45.7175L0 33.4738Z" fill="white"/>
<path opacity="0.5" d="M40 14.5262V33.4736L22.1053 21.2298V2.28247L40 14.5262Z" fill="white"/>
<path opacity="0.5" d="M40 33.4738V14.5264L22.1053 26.7702V45.7175L40 33.4738Z" fill="white"/>
</g>
<g opacity="0.84">
<path d="M50 24.2001C50 22.4668 50.375 20.9251 51.125 19.5751C51.875 18.2084 52.9167 17.1501 54.25 16.4001C55.6 15.6334 57.125 15.2501 58.825 15.2501C60.9083 15.2501 62.6917 15.8001 64.175 16.9001C65.6583 18.0001 66.65 19.5001 67.15 21.4001H62.45C62.1 20.6668 61.6 20.1084 60.95 19.7251C60.3167 19.3418 59.5917 19.1501 58.775 19.1501C57.4583 19.1501 56.3917 19.6084 55.575 20.5251C54.7583 21.4418 54.35 22.6668 54.35 24.2001C54.35 25.7334 54.7583 26.9584 55.575 27.8751C56.3917 28.7918 57.4583 29.2501 58.775 29.2501C59.5917 29.2501 60.3167 29.0584 60.95 28.6751C61.6 28.2918 62.1 27.7334 62.45 27.0001H67.15C66.65 28.9001 65.6583 30.4001 64.175 31.5001C62.6917 32.5834 60.9083 33.1251 58.825 33.1251C57.125 33.1251 55.6 32.7501 54.25 32.0001C52.9167 31.2334 51.875 30.1751 51.125 28.8251C50.375 27.4751 50 25.9334 50 24.2001Z" fill="white"/>
<path d="M83.043 19.0501V33.0001H78.768V31.1001C78.3346 31.7168 77.743 32.2168 76.993 32.6001C76.2596 32.9668 75.443 33.1501 74.543 33.1501C73.4763 33.1501 72.5346 32.9168 71.718 32.4501C70.9013 31.9668 70.268 31.2751 69.818 30.3751C69.368 29.4751 69.143 28.4168 69.143 27.2001V19.0501H73.393V26.6251C73.393 27.5584 73.6346 28.2834 74.118 28.8001C74.6013 29.3168 75.2513 29.5751 76.068 29.5751C76.9013 29.5751 77.5596 29.3168 78.043 28.8001C78.5263 28.2834 78.768 27.5584 78.768 26.6251V19.0501H83.043Z" fill="white"/>
<path d="M89.8887 21.0251C90.2887 20.3751 90.8637 19.8501 91.6137 19.4501C92.3637 19.0501 93.222 18.8501 94.1887 18.8501C95.3387 18.8501 96.3803 19.1418 97.3137 19.7251C98.247 20.3084 98.9803 21.1418 99.5137 22.2251C100.064 23.3084 100.339 24.5668 100.339 26.0001C100.339 27.4334 100.064 28.7001 99.5137 29.8001C98.9803 30.8834 98.247 31.7251 97.3137 32.3251C96.3803 32.9084 95.3387 33.2001 94.1887 33.2001C93.2053 33.2001 92.347 33.0084 91.6137 32.6251C90.8803 32.2251 90.3053 31.7001 89.8887 31.0501V33.0001H85.6137V14.5001H89.8887V21.0251ZM95.9887 26.0001C95.9887 24.9334 95.6887 24.1001 95.0887 23.5001C94.5053 22.8834 93.7803 22.5751 92.9137 22.5751C92.0637 22.5751 91.3387 22.8834 90.7387 23.5001C90.1553 24.1168 89.8637 24.9584 89.8637 26.0251C89.8637 27.0918 90.1553 27.9334 90.7387 28.5501C91.3387 29.1668 92.0637 29.4751 92.9137 29.4751C93.7637 29.4751 94.4887 29.1668 95.0887 28.5501C95.6887 27.9168 95.9887 27.0668 95.9887 26.0001Z" fill="white"/>
<path d="M115.231 25.8001C115.231 26.2001 115.206 26.6168 115.156 27.0501H105.481C105.548 27.9168 105.823 28.5834 106.306 29.0501C106.806 29.5001 107.415 29.7251 108.131 29.7251C109.198 29.7251 109.94 29.2751 110.356 28.3751H114.906C114.673 29.2918 114.248 30.1168 113.631 30.8501C113.031 31.5834 112.273 32.1584 111.356 32.5751C110.44 32.9918 109.415 33.2001 108.281 33.2001C106.915 33.2001 105.698 32.9084 104.631 32.3251C103.565 31.7418 102.731 30.9084 102.131 29.8251C101.531 28.7418 101.231 27.4751 101.231 26.0251C101.231 24.5751 101.523 23.3084 102.106 22.2251C102.706 21.1418 103.54 20.3084 104.606 19.7251C105.673 19.1418 106.898 18.8501 108.281 18.8501C109.631 18.8501 110.831 19.1334 111.881 19.7001C112.931 20.2668 113.748 21.0751 114.331 22.1251C114.931 23.1751 115.231 24.4001 115.231 25.8001ZM110.856 24.6751C110.856 23.9418 110.606 23.3584 110.106 22.9251C109.606 22.4918 108.981 22.2751 108.231 22.2751C107.515 22.2751 106.906 22.4834 106.406 22.9001C105.923 23.3168 105.623 23.9084 105.506 24.6751H110.856Z" fill="white"/>
<path d="M125.512 33.0001L121.262 27.1501V33.0001H116.987V14.5001H121.262V24.7251L125.487 19.0501H130.762L124.962 26.0501L130.812 33.0001H125.512Z" fill="white"/>
<path d="M134.091 17.6001C133.341 17.6001 132.724 17.3834 132.241 16.9501C131.774 16.5001 131.541 15.9501 131.541 15.3001C131.541 14.6334 131.774 14.0834 132.241 13.6501C132.724 13.2001 133.341 12.9751 134.091 12.9751C134.824 12.9751 135.424 13.2001 135.891 13.6501C136.374 14.0834 136.616 14.6334 136.616 15.3001C136.616 15.9501 136.374 16.5001 135.891 16.9501C135.424 17.3834 134.824 17.6001 134.091 17.6001ZM136.216 19.0501V33.0001H131.941V19.0501H136.216Z" fill="white"/>
<path d="M146.589 29.3751V33.0001H144.414C142.864 33.0001 141.656 32.6251 140.789 31.8751C139.922 31.1084 139.489 29.8668 139.489 28.1501V22.6001H137.789V19.0501H139.489V15.6501H143.764V19.0501H146.564V22.6001H143.764V28.2001C143.764 28.6168 143.864 28.9168 144.064 29.1001C144.264 29.2834 144.597 29.3751 145.064 29.3751H146.589Z" fill="white"/>
</g>
</svg>
