<svg width="192" height="48" viewBox="0 0 192 48" fill="none" xmlns="http://www.w3.org/2000/svg">
<path fill-rule="evenodd" clip-rule="evenodd" d="M34.6411 14V22.0492H24.6714V19.7565L34.6411 14Z" fill="#1570EF"/>
<path opacity="0.9" fill-rule="evenodd" clip-rule="evenodd" d="M34.6391 14.0001L24.6694 19.7566L17.3181 15.513V4L34.6391 14.0001Z" fill="#1570EF"/>
<path opacity="0.8" fill-rule="evenodd" clip-rule="evenodd" d="M17.3204 4V15.513L9.97144 19.7566L0.00170898 14.0001L17.3204 4Z" fill="#1570EF"/>
<path opacity="0.7" fill-rule="evenodd" clip-rule="evenodd" d="M9.96973 19.7566V28.2434L0 33.9994V14.0001L9.96973 19.7566Z" fill="#1570EF"/>
<path opacity="0.6" fill-rule="evenodd" clip-rule="evenodd" d="M17.3187 32.4871V44L0 33.9994L9.96973 28.2434L17.3187 32.4871Z" fill="#1570EF"/>
<path opacity="0.5" fill-rule="evenodd" clip-rule="evenodd" d="M34.6391 33.9994L17.3181 44V32.4871L24.6694 28.2434L34.6391 33.9994Z" fill="#1570EF"/>
<path opacity="0.4" fill-rule="evenodd" clip-rule="evenodd" d="M34.6411 25.9507V33.9994L24.6714 28.2434V25.9507H34.6411Z" fill="#1570EF"/>
<path d="M61.8463 26.1149C61.0633 30.7319 58.0933 33.4319 53.5033 33.4319C47.8333 33.4319 44.2693 29.1119 44.2693 23.4419C44.2693 17.7449 47.8333 13.3979 53.5033 13.3979C57.9313 13.3979 60.9283 15.9899 61.7653 20.4179L57.4723 20.6069C57.0133 18.2309 55.5553 16.8809 53.4223 16.8809C50.0473 16.8809 48.5083 19.7159 48.5083 23.4419C48.5083 27.1409 50.0743 29.9489 53.4223 29.9489C55.6363 29.9489 57.1213 28.4909 57.5263 25.9259L61.8463 26.1149Z" fill="#0A0D12"/>
<path d="M63.0212 23.1179C63.5882 20.0669 65.9372 18.3659 69.6902 18.3659C74.0372 18.3659 76.2782 20.4989 76.2782 24.6029V29.0849C76.2782 30.0299 76.6562 30.2189 77.1692 30.2189H77.7092V33L76.9802 33.0269C76.0352 33.0539 73.2542 33.3239 72.8492 30.8399C72.1742 32.2979 70.5272 33.3239 67.9352 33.3239C65.0462 33.3239 62.8052 31.7579 62.8052 29.2469C62.8052 26.5739 64.7762 25.5749 68.2322 24.8729L72.1742 24.0899C72.1472 22.011 71.3372 21.0389 69.6902 21.0389C68.3132 21.0389 67.4492 21.7949 67.1252 23.3339L63.0212 23.1179ZM66.9902 29.0849C66.9902 29.976 67.7462 30.6779 69.2042 30.6779C70.9592 30.6779 72.2282 29.3549 72.2282 26.7899V26.6279L69.8522 27.0599C68.2052 27.3839 66.9902 27.6269 66.9902 29.0849Z" fill="#0A0D12"/>
<path d="M79.144 13.8299H83.248V28.8419C83.248 29.5439 83.626 29.9489 84.328 29.9489H85.354V33H83.14C80.764 33 79.144 31.5689 79.144 29.0039V13.8299Z" fill="#0A0D12"/>
<path d="M86.0104 25.8449C86.0104 21.3089 88.9264 18.3659 93.3544 18.3659C97.2964 18.3659 100.374 21.0929 100.347 26.1419V26.8979H90.2764C90.3844 29.0309 91.5184 30.2999 93.3544 30.2999C94.5424 30.2999 95.5954 29.6249 96.0544 28.5179L100.158 28.8149C99.2944 31.5959 96.6214 33.3239 93.3544 33.3239C88.9264 33.3239 86.0104 30.3809 86.0104 25.8449ZM90.3034 24.4409H96.2164C96.0004 22.2809 94.7584 21.3899 93.3544 21.3899C91.6264 21.3899 90.5194 22.5509 90.3034 24.4409Z" fill="#0A0D12"/>
<path d="M110.644 23.3339C110.428 22.0109 109.294 21.2009 108.052 21.2009C106.837 21.2009 105.892 21.8489 105.946 22.8749C106 23.9279 107.215 24.3869 108.565 24.6029C112.777 25.2779 114.856 26.3849 114.856 29.0849C114.856 31.9469 112.156 33.3239 108.484 33.3239C104.299 33.3239 101.626 31.5149 101.41 28.4639L105.514 28.2479C105.757 29.625 106.756 30.462 108.403 30.462C109.429 30.462 110.671 30.0299 110.671 29.0039C110.644 27.7889 109.267 27.5729 107.89 27.2759C103.948 26.5199 101.734 25.5479 101.734 22.9019C101.734 20.0399 104.137 18.3389 108.214 18.3389C111.832 18.3389 114.262 20.1749 114.748 23.1719L110.644 23.3339Z" fill="#0A0D12"/>
<path d="M126.065 24.1709C125.822 22.4429 124.688 21.4979 123.257 21.4979C121.232 21.4979 120.098 23.0909 120.098 25.8449C120.098 28.5989 121.232 30.1919 123.257 30.1919C124.769 30.1919 125.876 29.2469 126.119 27.3839L130.331 27.5459C129.953 31.1099 127.064 33.3239 123.257 33.3239C118.829 33.3239 115.913 30.3809 115.913 25.8449C115.913 21.3089 118.829 18.3659 123.257 18.3659C126.956 18.3659 129.872 20.4989 130.25 23.9819L126.065 24.1709Z" fill="#0A0D12"/>
<path d="M131.075 25.8449C131.075 21.3089 133.991 18.3659 138.419 18.3659C142.361 18.3659 145.439 21.0929 145.412 26.1419V26.8979H135.341C135.449 29.0309 136.583 30.2999 138.419 30.2999C139.607 30.2999 140.66 29.6249 141.119 28.5179L145.223 28.8149C144.359 31.5959 141.686 33.3239 138.419 33.3239C133.991 33.3239 131.075 30.3809 131.075 25.8449ZM135.368 24.4409H141.281C141.065 22.2809 139.823 21.3899 138.419 21.3899C136.691 21.3899 135.584 22.5509 135.368 24.4409Z" fill="#0A0D12"/>
<path d="M146.939 18.6899H150.611L150.719 20.9849C151.502 19.0949 153.095 18.3659 154.985 18.3659C158.117 18.3659 159.926 20.4719 159.926 23.7929V33H155.849V25.1429C155.849 22.8749 155.336 21.6059 153.662 21.6059C151.934 21.6059 151.043 22.8749 151.043 25.1429V33H146.939V18.6899Z" fill="#0A0D12"/>
<path d="M171.472 24.1709C171.229 22.4429 170.095 21.4979 168.664 21.4979C166.639 21.4979 165.505 23.0909 165.505 25.8449C165.505 28.5989 166.639 30.1919 168.664 30.1919C170.176 30.1919 171.283 29.2469 171.526 27.3839L175.738 27.5459C175.36 31.1099 172.471 33.3239 168.664 33.3239C164.236 33.3239 161.32 30.3809 161.32 25.8449C161.32 21.3089 164.236 18.3659 168.664 18.3659C172.363 18.3659 175.279 20.4989 175.657 23.9819L171.472 24.1709Z" fill="#0A0D12"/>
<path d="M176.483 25.8449C176.483 21.3089 179.399 18.3659 183.827 18.3659C187.769 18.3659 190.847 21.0929 190.82 26.1419V26.8979H180.749C180.857 29.0309 181.991 30.2999 183.827 30.2999C185.015 30.2999 186.068 29.6249 186.527 28.5179L190.631 28.8149C189.767 31.5959 187.094 33.3239 183.827 33.3239C179.399 33.3239 176.483 30.3809 176.483 25.8449ZM180.776 24.4409H186.689C186.473 22.2809 185.231 21.3899 183.827 21.3899C182.099 21.3899 180.992 22.5509 180.776 24.4409Z" fill="#0A0D12"/>
</svg>
