<svg width="210" height="48" viewBox="0 0 210 48" fill="none" xmlns="http://www.w3.org/2000/svg">
<g opacity="0.84">
<circle cx="20" cy="24" r="18.5" stroke="white" stroke-width="3"/>
<circle cx="15.75" cy="19.75" r="12.5" stroke="white" stroke-width="3"/>
<circle cx="20" cy="24" r="6.5" stroke="white" stroke-width="3"/>
</g>
<g opacity="0.84">
<path d="M55.55 33.0004L50 12.0004H54.11L57.89 28.7104L62.33 12.0004H66.56L70.88 28.7104L74.66 12.0004H78.8L73.1 33.0004H68.54L64.37 17.4304L60.08 33.0004H55.55Z" fill="white"/>
<path d="M83.1238 33.3604C81.8438 33.3604 80.7938 33.1604 79.9738 32.7604C79.1538 32.3404 78.5438 31.7904 78.1438 31.1104C77.7438 30.4304 77.5438 29.6804 77.5438 28.8604C77.5438 27.4804 78.0838 26.3604 79.1638 25.5004C80.2438 24.6404 81.8638 24.2104 84.0238 24.2104H87.8038V23.8504C87.8038 22.8304 87.5138 22.0804 86.9338 21.6004C86.3538 21.1204 85.6338 20.8804 84.7738 20.8804C83.9938 20.8804 83.3138 21.0704 82.7337 21.4504C82.1537 21.8104 81.7938 22.3504 81.6538 23.0704H77.9038C78.0038 21.9904 78.3638 21.0504 78.9838 20.2504C79.6238 19.4504 80.4438 18.8404 81.4438 18.4204C82.4437 17.9804 83.5638 17.7604 84.8038 17.7604C86.9238 17.7604 88.5938 18.2904 89.8138 19.3504C91.0338 20.4104 91.6438 21.9104 91.6438 23.8504V33.0004H88.3738L88.0138 30.6004C87.5738 31.4004 86.9538 32.0604 86.1538 32.5804C85.3738 33.1004 84.3638 33.3604 83.1238 33.3604ZM83.9938 30.3604C85.0938 30.3604 85.9438 30.0004 86.5438 29.2804C87.1637 28.5604 87.5538 27.6704 87.7138 26.6104H84.4438C83.4238 26.6104 82.6937 26.8004 82.2537 27.1804C81.8137 27.5404 81.5938 27.9904 81.5938 28.5304C81.5938 29.1104 81.8137 29.5604 82.2537 29.8804C82.6937 30.2004 83.2738 30.3604 83.9938 30.3604Z" fill="white"/>
<path d="M99.9331 33.0004C98.3731 33.0004 97.1231 32.6204 96.1831 31.8604C95.2431 31.1004 94.7731 29.7504 94.7731 27.8104V21.3304H92.2231V18.1204H94.7731L95.2231 14.1304H98.6131V18.1204H102.633V21.3304H98.6131V27.8404C98.6131 28.5604 98.7631 29.0604 99.0631 29.3404C99.3831 29.6004 99.9231 29.7304 100.683 29.7304H102.543V33.0004H99.9331Z" fill="white"/>
<path d="M111.039 33.3604C109.519 33.3604 108.179 33.0304 107.019 32.3704C105.859 31.7104 104.939 30.7904 104.259 29.6104C103.599 28.4304 103.269 27.0804 103.269 25.5604C103.269 24.0404 103.599 22.6904 104.259 21.5104C104.939 20.3304 105.859 19.4104 107.019 18.7504C108.179 18.0904 109.519 17.7604 111.039 17.7604C112.939 17.7604 114.539 18.2604 115.839 19.2604C117.139 20.2404 117.969 21.6004 118.329 23.3404H114.279C114.079 22.6204 113.679 22.0604 113.079 21.6604C112.499 21.2404 111.809 21.0304 111.009 21.0304C109.949 21.0304 109.049 21.4304 108.309 22.2304C107.569 23.0304 107.199 24.1404 107.199 25.5604C107.199 26.9804 107.569 28.0904 108.309 28.8904C109.049 29.6904 109.949 30.0904 111.009 30.0904C111.809 30.0904 112.499 29.8904 113.079 29.4904C113.679 29.0904 114.079 28.5204 114.279 27.7804H118.329C117.969 29.4604 117.139 30.8104 115.839 31.8304C114.539 32.8504 112.939 33.3604 111.039 33.3604Z" fill="white"/>
<path d="M119.938 33.0004V11.4004H123.778V20.4004C124.278 19.5804 124.948 18.9404 125.788 18.4804C126.648 18.0004 127.628 17.7604 128.728 17.7604C130.568 17.7604 131.988 18.3404 132.988 19.5004C134.007 20.6604 134.518 22.3604 134.518 24.6004V33.0004H130.708V24.9604C130.708 23.6804 130.448 22.7004 129.928 22.0204C129.428 21.3404 128.628 21.0004 127.528 21.0004C126.448 21.0004 125.548 21.3804 124.828 22.1404C124.128 22.9004 123.778 23.9604 123.778 25.3204V33.0004H119.938Z" fill="white"/>
<path d="M143.019 33.0004C141.459 33.0004 140.209 32.6204 139.269 31.8604C138.329 31.1004 137.859 29.7504 137.859 27.8104V21.3304H135.309V18.1204H137.859L138.309 14.1304H141.699V18.1204H145.719V21.3304H141.699V27.8404C141.699 28.5604 141.849 29.0604 142.149 29.3404C142.469 29.6004 143.009 29.7304 143.769 29.7304H145.629V33.0004H143.019Z" fill="white"/>
<path d="M153.976 33.3604C152.536 33.3604 151.236 33.0304 150.076 32.3704C148.936 31.7104 148.026 30.8004 147.346 29.6404C146.686 28.4604 146.356 27.1004 146.356 25.5604C146.356 24.0204 146.696 22.6704 147.376 21.5104C148.056 20.3304 148.966 19.4104 150.106 18.7504C151.266 18.0904 152.566 17.7604 154.006 17.7604C155.426 17.7604 156.706 18.0904 157.846 18.7504C159.006 19.4104 159.916 20.3304 160.576 21.5104C161.256 22.6704 161.596 24.0204 161.596 25.5604C161.596 27.1004 161.256 28.4604 160.576 29.6404C159.916 30.8004 159.006 31.7104 157.846 32.3704C156.686 33.0304 155.396 33.3604 153.976 33.3604ZM153.976 30.0304C154.976 30.0304 155.846 29.6604 156.586 28.9204C157.326 28.1604 157.696 27.0404 157.696 25.5604C157.696 24.0804 157.326 22.9704 156.586 22.2304C155.846 21.4704 154.986 21.0904 154.006 21.0904C152.986 21.0904 152.106 21.4704 151.366 22.2304C150.646 22.9704 150.286 24.0804 150.286 25.5604C150.286 27.0404 150.646 28.1604 151.366 28.9204C152.106 29.6604 152.976 30.0304 153.976 30.0304Z" fill="white"/>
<path d="M165.612 33.0004L161.262 18.1204H165.072L167.652 28.8304L170.652 18.1204H174.912L177.912 28.8304L180.522 18.1204H184.332L179.952 33.0004H175.962L172.782 21.8704L169.602 33.0004H165.612Z" fill="white"/>
<path d="M191.657 33.3604C190.157 33.3604 188.827 33.0404 187.667 32.4004C186.507 31.7604 185.597 30.8604 184.937 29.7004C184.277 28.5404 183.947 27.2004 183.947 25.6804C183.947 24.1404 184.267 22.7704 184.907 21.5704C185.567 20.3704 186.467 19.4404 187.607 18.7804C188.767 18.1004 190.127 17.7604 191.687 17.7604C193.147 17.7604 194.437 18.0804 195.557 18.7204C196.677 19.3604 197.547 20.2404 198.167 21.3604C198.807 22.4604 199.127 23.6904 199.127 25.0504C199.127 25.2704 199.117 25.5004 199.097 25.7404C199.097 25.9804 199.087 26.2304 199.067 26.4904H187.757C187.837 27.6504 188.237 28.5604 188.957 29.2204C189.697 29.8804 190.587 30.2104 191.627 30.2104C192.407 30.2104 193.057 30.0404 193.577 29.7004C194.117 29.3404 194.517 28.8804 194.777 28.3204H198.677C198.397 29.2604 197.927 30.1204 197.267 30.9004C196.627 31.6604 195.827 32.2604 194.867 32.7004C193.927 33.1404 192.857 33.3604 191.657 33.3604ZM191.687 20.8804C190.747 20.8804 189.917 21.1504 189.197 21.6904C188.477 22.2104 188.017 23.0104 187.817 24.0904H195.227C195.167 23.1104 194.807 22.3304 194.147 21.7504C193.487 21.1704 192.667 20.8804 191.687 20.8804Z" fill="white"/>
<path d="M200.557 33.0004V18.1204H203.977L204.337 20.9104C204.877 19.9504 205.607 19.1904 206.527 18.6304C207.467 18.0504 208.567 17.7604 209.827 17.7604V21.8104H208.747C207.907 21.8104 207.157 21.9404 206.497 22.2004C205.837 22.4604 205.317 22.9104 204.937 23.5504C204.577 24.1904 204.397 25.0804 204.397 26.2204V33.0004H200.557Z" fill="white"/>
</g>
</svg>
