<svg width="149" height="48" viewBox="0 0 149 48" fill="none" xmlns="http://www.w3.org/2000/svg">
<g opacity="0.84">
<circle opacity="0.7" cx="14" cy="18" r="14" fill="white"/>
<circle opacity="0.7" cx="26" cy="30" r="14" fill="white"/>
</g>
<g opacity="0.84">
<path d="M59.72 33.405C54.266 33.405 50 28.977 50 23.28C50 17.61 54.266 13.209 59.72 13.209C64.823 13.209 68.819 16.611 69.494 21.579H65.147C64.688 18.798 62.528 16.881 59.774 16.881C56.453 16.881 54.212 19.5 54.212 23.28C54.212 27.087 56.453 29.733 59.774 29.733C62.528 29.733 64.661 27.789 65.147 25.008H69.494C68.819 30.03 64.823 33.405 59.72 33.405Z" fill="white"/>
<path d="M79.5416 33V31.218C78.5966 32.568 77.1656 33.27 75.1946 33.27C72.1976 33.27 70.1996 31.515 70.1996 28.815C70.1996 26.007 72.4676 24.495 76.6796 24.495C77.4896 24.495 78.1916 24.549 79.0826 24.657V23.793C79.0826 22.173 78.1646 21.228 76.5986 21.228C74.9786 21.228 74.0066 22.173 73.8716 23.793H70.4966C70.7126 20.472 73.1156 18.312 76.5986 18.312C80.3786 18.312 82.5926 20.391 82.5926 23.928V33H79.5416ZM73.7366 28.707C73.7366 29.922 74.6006 30.678 76.0046 30.678C77.9216 30.678 79.0826 29.625 79.0826 27.951V26.925C78.1916 26.79 77.5706 26.736 76.9226 26.736C74.7896 26.736 73.7366 27.411 73.7366 28.707Z" fill="white"/>
<path d="M99.1377 25.791C99.1377 30.057 96.6267 33.27 92.7387 33.27C91.0377 33.27 89.5797 32.541 88.4997 31.137V38.211H84.7467V18.582H88.2027V20.688C89.3097 19.149 90.9027 18.312 92.7387 18.312C96.6267 18.312 99.1377 21.552 99.1377 25.791ZM95.2767 25.791C95.2767 23.091 93.7377 21.633 91.9017 21.633C90.0657 21.633 88.5267 23.064 88.5267 25.791C88.5267 28.518 90.0657 29.922 91.9017 29.922C93.7377 29.922 95.2767 28.545 95.2767 25.791Z" fill="white"/>
<path d="M112.64 28.383C112.64 31.407 110.345 33.27 106.241 33.27C102.137 33.27 99.8416 31.299 99.5446 28.086H103.136C103.163 29.571 104.432 30.516 106.295 30.516C107.753 30.516 108.86 30.057 108.86 29.031C108.86 28.113 108.266 27.735 106.889 27.465L104.297 26.979C101.705 26.52 100.139 25.089 100.139 22.848C100.139 20.175 102.434 18.312 106.025 18.312C109.643 18.312 112.127 20.229 112.397 23.334H108.806C108.671 21.93 107.618 21.066 106.025 21.066C104.648 21.066 103.73 21.579 103.73 22.497C103.73 23.361 104.324 23.712 105.62 23.955L108.401 24.468C111.209 25.008 112.64 26.304 112.64 28.383Z" fill="white"/>
<path d="M122.897 26.925V18.582H126.623V33H123.194V31.11C122.411 32.379 120.818 33.27 118.982 33.27C116.093 33.27 113.987 31.515 113.987 27.762V18.582H117.74V27.033C117.74 29.058 118.739 29.949 120.251 29.949C121.601 29.949 122.897 28.869 122.897 26.925Z" fill="white"/>
<path d="M132.695 33H128.915V13.614H132.695V33Z" fill="white"/>
<path d="M141.244 33.243C136.924 33.243 134.035 30.246 134.035 25.737C134.035 21.444 137.032 18.312 141.19 18.312C145.753 18.312 148.777 22.011 148.102 26.709H137.869C138.112 29.058 139.246 30.354 141.163 30.354C142.81 30.354 143.917 29.544 144.349 28.113H148.075C147.265 31.38 144.754 33.243 141.244 33.243ZM141.109 21.066C139.354 21.066 138.247 22.2 137.923 24.333H144.133C144.025 22.335 142.891 21.066 141.109 21.066Z" fill="white"/>
</g>
</svg>
