<svg width="221" height="48" viewBox="0 0 221 48" fill="none" xmlns="http://www.w3.org/2000/svg">
<g opacity="0.84">
<path fill-rule="evenodd" clip-rule="evenodd" d="M8 4C3.58172 4 0 7.58172 0 12V36C0 40.4183 3.58172 44 8 44H32C36.4183 44 40 40.4183 40 36V12C40 7.58172 36.4183 4 32 4H8ZM11 19.5H20.9645L9.23223 31.2322L12.7678 34.7678L24.5 23.0355V33H29.5V17C29.5 15.6193 28.3807 14.5 27 14.5H11V19.5Z" fill="white"/>
</g>
<g opacity="0.84">
<path d="M50 32.9998V14.0997H54.05V29.5168H61.556V32.9998H50Z" fill="white"/>
<path d="M76.3564 19.1218V32.9998H72.23L72.6574 31.0558C71.5594 32.4418 70.1194 33.1348 68.3374 33.1348C67.1134 33.1348 66.0154 32.8468 65.0434 32.2708C64.0714 31.6948 63.3064 30.8668 62.7484 29.7868C62.2084 28.7068 61.9384 27.4558 61.9384 26.0338C61.9384 24.6298 62.2084 23.3878 62.7484 22.3078C63.3064 21.2278 64.0714 20.3998 65.0434 19.8238C66.0334 19.2298 67.1404 18.9328 68.3644 18.9328C69.3004 18.9328 70.1284 19.1128 70.8484 19.4727C71.5684 19.8327 72.1624 20.3278 72.6304 20.9578L72.26 19.1218H76.3564ZM69.2284 30.0568C70.2544 30.0568 71.0734 29.6968 71.6854 28.9768C72.2974 28.2388 72.6034 27.2758 72.6034 26.0878C72.6034 24.8818 72.2974 23.9098 71.6854 23.1718C71.0734 22.4338 70.2544 22.0648 69.2284 22.0648C68.2024 22.0648 67.3744 22.4338 66.7444 23.1718C66.1324 23.9098 65.8264 24.8818 65.8264 26.0878C65.8264 27.2758 66.1324 28.2388 66.7444 28.9768C67.3744 29.6968 68.2024 30.0568 69.2284 30.0568Z" fill="white"/>
<path d="M91.5387 19.1218V32.9998H87.41L87.8127 31.3258C87.3267 31.9018 86.7597 32.3518 86.1117 32.6758C85.4637 32.9998 84.6717 33.1618 83.7357 33.1618C82.1157 33.1618 80.7927 32.6668 79.7667 31.6768C78.7407 30.6688 78.2277 28.9948 78.2277 26.6548V19.1218H82.0347V26.1958C82.0347 27.4558 82.2507 28.4098 82.6827 29.0578C83.1327 29.6877 83.8167 30.0028 84.7347 30.0028C85.6887 30.0028 86.4267 29.6518 86.9487 28.9498C87.4707 28.2298 87.7317 27.2308 87.7317 25.9528V19.1218H91.5387Z" fill="white"/>
<path d="M101.611 18.9598C103.23 18.9598 104.563 19.4638 105.607 20.4718C106.651 21.4798 107.173 23.1448 107.173 25.4668V32.9998H103.366V25.6828C103.366 23.2888 102.43 22.0918 100.558 22.0918C99.5675 22.0918 98.8025 22.4248 98.2625 23.0908C97.7225 23.7568 97.4525 24.6928 97.4525 25.8988V32.9998H93.6455V19.1218H97.72L97.3175 20.8498C97.8035 20.2558 98.3885 19.7968 99.0725 19.4727C99.7565 19.1307 100.603 18.9598 101.611 18.9598Z" fill="white"/>
<path d="M122.369 27.7348C122.117 29.4268 121.397 30.7588 120.209 31.7308C119.039 32.6848 117.518 33.1618 115.646 33.1618C114.206 33.1618 112.946 32.8738 111.866 32.2978C110.786 31.7038 109.949 30.8668 109.355 29.7868C108.779 28.7068 108.491 27.4648 108.491 26.0608C108.491 24.6388 108.779 23.3968 109.355 22.3348C109.949 21.2548 110.786 20.4268 111.866 19.8508C112.964 19.2568 114.233 18.9598 115.673 18.9598C117.527 18.9598 119.039 19.4368 120.209 20.3908C121.379 21.3268 122.099 22.6318 122.369 24.3058H118.427C118.265 23.6218 117.941 23.0817 117.455 22.6858C116.969 22.2717 116.366 22.0648 115.646 22.0648C114.656 22.0648 113.864 22.4338 113.27 23.1718C112.676 23.9098 112.379 24.8728 112.379 26.0608C112.379 27.2488 112.676 28.2118 113.27 28.9498C113.864 29.6878 114.656 30.0568 115.646 30.0568C116.384 30.0568 116.996 29.8498 117.482 29.4358C117.986 29.0218 118.31 28.4548 118.454 27.7348H122.369Z" fill="white"/>
<path d="M131.801 18.9598C133.439 18.9598 134.78 19.4638 135.824 20.4718C136.886 21.4798 137.417 23.1448 137.417 25.4668V32.9998H133.61V25.6288C133.61 24.4768 133.376 23.6038 132.908 23.0098C132.44 22.3978 131.738 22.0918 130.802 22.0918C129.83 22.0918 129.065 22.4248 128.507 23.0908C127.967 23.7568 127.697 24.6838 127.697 25.8718V32.9998H123.89V14.0997H127.697V20.8228C128.723 19.5807 130.091 18.9598 131.801 18.9598Z" fill="white"/>
<path d="M142.785 26.8438C142.857 27.7798 143.236 28.5358 143.92 29.1118C144.622 29.6698 145.549 29.9488 146.701 29.9488C147.655 29.9488 148.428 29.7508 149.022 29.3548C149.634 28.9408 149.941 28.3738 149.941 27.6538C149.941 27.1498 149.77 26.7538 149.428 26.4658C149.104 26.1598 148.636 25.9258 148.024 25.7638C147.43 25.5838 146.503 25.3678 145.243 25.1158C144.001 24.8818 142.957 24.5848 142.111 24.2248C141.265 23.8468 140.572 23.2978 140.032 22.5778C139.509 21.8398 139.249 20.8678 139.249 19.6618C139.249 18.5638 139.546 17.5828 140.14 16.7188C140.752 15.8548 141.589 15.1798 142.651 14.6938C143.731 14.1898 144.946 13.9378 146.296 13.9378C147.682 13.9378 148.924 14.1988 150.021 14.7207C151.137 15.2247 152.011 15.9268 152.641 16.8268C153.289 17.7268 153.622 18.7438 153.64 19.8778H149.671C149.581 19.0678 149.239 18.4198 148.645 17.9338C148.05 17.4298 147.268 17.1778 146.296 17.1778C145.396 17.1778 144.676 17.3668 144.136 17.7448C143.596 18.1228 143.326 18.6628 143.326 19.3648C143.326 19.8688 143.488 20.2648 143.812 20.5528C144.135 20.8228 144.594 21.0478 145.188 21.2278C145.783 21.3898 146.701 21.5878 147.943 21.8218C149.203 22.0558 150.265 22.3527 151.129 22.7128C151.993 23.0548 152.686 23.5858 153.208 24.3058C153.748 25.0078 154.018 25.9528 154.018 27.1408C154.018 28.2928 153.702 29.3278 153.073 30.2458C152.443 31.1458 151.561 31.8568 150.427 32.3788C149.311 32.9008 148.05 33.1618 146.646 33.1618C145.134 33.1618 143.785 32.8918 142.597 32.3518C141.427 31.7938 140.508 31.0288 139.842 30.0568C139.176 29.0848 138.835 27.9958 138.817 26.7898L142.785 26.8438Z" fill="white"/>
<path d="M157.528 13.3438C158.158 13.3438 158.679 13.5508 159.093 13.9648C159.507 14.3608 159.715 14.8648 159.715 15.4767C159.715 16.0888 159.507 16.6018 159.093 17.0158C158.679 17.4298 158.158 17.6368 157.528 17.6368C156.898 17.6368 156.367 17.4298 155.935 17.0158C155.521 16.6018 155.313 16.0888 155.313 15.4767C155.313 14.8648 155.521 14.3608 155.935 13.9648C156.367 13.5508 156.898 13.3438 157.528 13.3438ZM155.611 19.1218H159.418V32.9998H155.611V19.1218Z" fill="white"/>
<path d="M178.216 18.9598C179.71 18.9598 180.925 19.4548 181.861 20.4448C182.797 21.4348 183.265 23.0818 183.265 25.3858V33.0268H179.458V25.2508C179.458 23.1448 178.657 22.0918 177.055 22.0918C176.227 22.0918 175.561 22.3888 175.057 22.9828C174.553 23.5588 174.301 24.3688 174.301 25.4128V33.0268H170.494V25.2508C170.494 23.1448 169.684 22.0918 168.064 22.0918C167.236 22.0918 166.57 22.3978 166.066 23.0098C165.58 23.6038 165.337 24.4138 165.337 25.4398V33.0268H161.53V19.1218H165.6L165.202 20.8498C165.67 20.2558 166.228 19.7968 166.876 19.4727C167.524 19.1487 168.334 18.9777 169.306 18.9598C171.286 18.9598 172.663 19.7428 173.437 21.3088C173.941 20.5528 174.598 19.9768 175.408 19.5808C176.236 19.1668 177.172 18.9598 178.216 18.9598Z" fill="white"/>
<path d="M193.135 18.9598C194.377 18.9598 195.475 19.2568 196.429 19.8508C197.401 20.4268 198.157 21.2548 198.697 22.3348C199.255 23.4148 199.534 24.6658 199.534 26.0878C199.534 27.5098 199.255 28.7518 198.697 29.8138C198.157 30.8758 197.401 31.7038 196.429 32.2978C195.457 32.8738 194.35 33.1618 193.108 33.1618C191.326 33.1618 189.931 32.5228 188.923 31.2448V38.3998H185.116V19.1218H189.19L188.815 21.0388C189.283 20.4088 189.877 19.9048 190.597 19.5268C191.335 19.1488 192.181 18.9598 193.135 18.9598ZM192.244 30.0568C193.27 30.0568 194.098 29.6878 194.728 28.9498C195.358 28.1938 195.673 27.2218 195.673 26.0338C195.673 24.8458 195.358 23.8918 194.728 23.1718C194.098 22.4338 193.27 22.0648 192.244 22.0648C191.218 22.0648 190.399 22.4338 189.787 23.1718C189.175 23.8918 188.869 24.8458 188.869 26.0338C188.869 27.2398 189.175 28.2118 189.787 28.9498C190.399 29.6878 191.218 30.0568 192.244 30.0568Z" fill="white"/>
<path d="M201.109 14.0997H204.916V32.9998H201.109V14.0997Z" fill="white"/>
<path d="M206.489 26.0878C206.489 24.6477 206.777 23.3968 207.353 22.3348C207.947 21.2548 208.766 20.4268 209.81 19.8508C210.872 19.2568 212.096 18.9598 213.482 18.9598C214.886 18.9598 216.119 19.2388 217.181 19.7968C218.261 20.3368 219.098 21.1108 219.692 22.1188C220.304 23.1088 220.619 24.2788 220.637 25.6288C220.637 26.1148 220.601 26.5468 220.529 26.9248H210.458V27.0328C210.548 28.0408 210.872 28.8328 211.43 29.4088C211.988 29.9848 212.753 30.2728 213.725 30.2728C214.499 30.2728 215.138 30.1108 215.642 29.7868C216.164 29.4447 216.506 28.9498 216.668 28.3018H220.421C220.277 29.2198 219.926 30.0478 219.368 30.7858C218.81 31.5238 218.072 32.1088 217.154 32.5408C216.236 32.9548 215.183 33.1618 213.995 33.1618C212.447 33.1618 211.106 32.8738 209.972 32.2978C208.856 31.7218 207.992 30.9028 207.38 29.8408C206.786 28.7608 206.489 27.5098 206.489 26.0878ZM216.83 24.4408C216.704 23.5948 216.353 22.9468 215.777 22.4968C215.219 22.0288 214.508 21.7948 213.644 21.7948C212.816 21.7948 212.114 22.0378 211.538 22.5238C210.98 22.9918 210.647 23.6308 210.539 24.4408H216.83Z" fill="white"/>
</g>
</svg>
