<svg width="164" height="48" viewBox="0 0 164 48" fill="none" xmlns="http://www.w3.org/2000/svg">
<g opacity="0.84">
<rect x="20.5742" y="20.5713" width="6.85714" height="6.85714" fill="white"/>
<rect opacity="0.6" x="20.5742" y="27.4287" width="6.85714" height="6.85714" fill="white"/>
<rect opacity="0.32" x="27.4258" y="27.4287" width="6.85714" height="6.85714" fill="white"/>
<rect opacity="0.07" x="34.2852" y="27.4287" width="6.85714" height="6.85714" fill="white"/>
<rect opacity="0.32" x="13.7148" y="27.4287" width="6.85714" height="6.85714" fill="white"/>
<rect opacity="0.07" x="6.85742" y="27.4287" width="6.85714" height="6.85714" fill="white"/>
<rect opacity="0.32" x="20.5742" y="34.2856" width="6.85714" height="6.85714" fill="white"/>
<rect opacity="0.07" x="13.7148" y="34.2856" width="6.85714" height="6.85714" fill="white"/>
<rect opacity="0.07" x="27.4258" y="34.2856" width="6.85714" height="6.85714" fill="white"/>
<rect opacity="0.07" x="20.5742" y="41.1431" width="6.85714" height="6.85714" fill="white"/>
<rect opacity="0.6" x="13.7148" y="20.5713" width="6.85714" height="6.85714" fill="white"/>
<rect opacity="0.32" x="6.85742" y="20.5713" width="6.85714" height="6.85714" fill="white"/>
<rect opacity="0.07" y="20.5713" width="6.85714" height="6.85714" fill="white"/>
<rect opacity="0.6" x="27.4258" y="20.5713" width="6.85714" height="6.85714" fill="white"/>
<rect opacity="0.32" x="34.2852" y="20.5713" width="6.85714" height="6.85714" fill="white"/>
<rect opacity="0.07" x="41.1426" y="20.5713" width="6.85714" height="6.85714" fill="white"/>
<rect opacity="0.6" x="20.5742" y="13.7144" width="6.85714" height="6.85714" fill="white"/>
<rect opacity="0.32" x="13.7148" y="13.7144" width="6.85714" height="6.85714" fill="white"/>
<rect opacity="0.07" x="13.7148" y="6.85693" width="6.85714" height="6.85714" fill="white"/>
<rect opacity="0.07" x="6.85742" y="13.7144" width="6.85714" height="6.85714" fill="white"/>
<rect opacity="0.32" x="27.4258" y="13.7144" width="6.85714" height="6.85714" fill="white"/>
<rect opacity="0.07" x="27.4258" y="6.85693" width="6.85714" height="6.85714" fill="white"/>
<rect opacity="0.07" x="34.2852" y="13.7144" width="6.85714" height="6.85714" fill="white"/>
<rect opacity="0.32" x="20.5742" y="6.85693" width="6.85714" height="6.85714" fill="white"/>
<rect opacity="0.07" x="20.5742" width="6.85714" height="6.85714" fill="white"/>
</g>
<g opacity="0.84">
<path d="M56 33.0001V14.4621H63.982C69.78 14.4621 72.276 16.8021 72.276 20.8581C72.276 24.8361 69.624 27.2281 64.242 27.2021H59.744V33.0001H56ZM64.008 17.6861H59.744V23.9781H64.112C67.102 23.9781 68.454 22.9901 68.454 20.8321C68.454 18.6221 67.024 17.6861 64.008 17.6861Z" fill="white"/>
<path d="M77.8479 33.0001H73.9479V18.0501H77.8479V33.0001Z" fill="white"/>
<path d="M79.4676 25.5121C79.4676 20.4941 83.0036 17.6341 87.9696 17.6341C92.8316 17.6341 95.9256 19.8441 96.3676 24.1861V24.2121H92.3116V24.1601C91.9736 21.8981 90.5176 20.8061 87.9956 20.8061C85.1096 20.8061 83.3936 22.4181 83.3936 25.5121V25.7201C83.3936 28.6061 84.9536 30.1921 87.9696 30.1921C90.6476 30.1921 91.9996 29.0481 92.3376 26.7601V26.7341H96.3676V26.7861C96.0296 31.1281 93.0656 33.4421 87.8916 33.4421C82.1976 33.4421 79.4676 30.6081 79.4676 25.7461V25.5121Z" fill="white"/>
<path d="M99.8167 21.3781H96.3847V18.0501H100.155C100.155 18.0501 100.181 14.5661 100.155 14.0201H103.379V18.0501H108.293V21.3781H103.379V25.8241C103.379 26.9421 103.483 27.7481 103.613 28.2941C103.925 29.3341 104.835 29.5681 106.733 29.5681H108.293V33.0001H105.745C101.039 33.0001 99.8167 31.2841 99.8167 26.4741V21.3781Z" fill="white"/>
<path d="M108.77 25.6161C108.77 20.5981 112.332 17.6341 117.324 17.6341C119.196 17.6341 120.73 17.9721 121.952 18.6741C124.396 20.0781 125.644 22.4441 125.644 25.3301V26.9161H112.462C112.852 29.1781 114.412 30.3741 117.35 30.3741C119.508 30.3741 120.704 29.7501 121.302 28.5801H125.462C124.292 31.8301 121.432 33.4421 117.142 33.4421C112.202 33.4421 108.77 31.2841 108.77 25.8501V25.6161ZM112.514 24.0561H121.874C121.536 21.7941 120.106 20.5981 117.402 20.5981C114.62 20.5981 113.008 21.8721 112.514 24.0561Z" fill="white"/>
<path d="M131.094 33.0001H127.272V13.0841H131.094V33.0001Z" fill="white"/>
<path d="M131.908 33.0001L139.708 14.4621H143.66L151.616 33.0001H147.69L146 28.8921H137.498L135.886 33.0001H131.908ZM138.746 25.7461H144.7L141.684 18.3621L138.746 25.7461Z" fill="white"/>
<path d="M156.251 17.8421H152.169V14.4621H163.921V17.8421H159.865V29.4641H163.921V33.0001H152.169V29.4641H156.251V17.8421Z" fill="white"/>
<path d="M78.47 13.8801C78.47 15.2664 77.3462 16.3901 75.96 16.3901C74.5738 16.3901 73.45 15.2664 73.45 13.8801C73.45 12.4939 74.5738 11.3701 75.96 11.3701C77.3462 11.3701 78.47 12.4939 78.47 13.8801Z" fill="white"/>
</g>
</svg>
