<svg width="162" height="48" viewBox="0 0 162 48" fill="none" xmlns="http://www.w3.org/2000/svg">
<g opacity="0.84">
<path d="M9 8.5C9 10.9853 6.98528 13 4.5 13C2.01472 13 0 10.9853 0 8.5C0 6.01472 2.01472 4 4.5 4C6.98528 4 9 6.01472 9 8.5Z" fill="white"/>
<path d="M24.5 8.5C24.5 10.9853 22.4853 13 20 13C17.5147 13 15.5 10.9853 15.5 8.5C15.5 6.01472 17.5147 4 20 4C22.4853 4 24.5 6.01472 24.5 8.5Z" fill="white"/>
<path d="M40 8.5C40 10.9853 37.9853 13 35.5 13C33.0147 13 31 10.9853 31 8.5C31 6.01472 33.0147 4 35.5 4C37.9853 4 40 6.01472 40 8.5Z" fill="white"/>
<path d="M9 24C9 26.4853 6.98528 28.5 4.5 28.5C2.01472 28.5 0 26.4853 0 24C0 21.5147 2.01472 19.5 4.5 19.5C6.98528 19.5 9 21.5147 9 24Z" fill="white"/>
<path d="M24.5 24C24.5 26.4853 22.4853 28.5 20 28.5C17.5147 28.5 15.5 26.4853 15.5 24C15.5 21.5147 17.5147 19.5 20 19.5C22.4853 19.5 24.5 21.5147 24.5 24Z" fill="white"/>
<path d="M40 24C40 26.4853 37.9853 28.5 35.5 28.5C33.0147 28.5 31 26.4853 31 24C31 21.5147 33.0147 19.5 35.5 19.5C37.9853 19.5 40 21.5147 40 24Z" fill="white"/>
<path d="M9 39.5C9 41.9853 6.98528 44 4.5 44C2.01472 44 0 41.9853 0 39.5C0 37.0147 2.01472 35 4.5 35C6.98528 35 9 37.0147 9 39.5Z" fill="white"/>
<path d="M24.5 39.5C24.5 41.9853 22.4853 44 20 44C17.5147 44 15.5 41.9853 15.5 39.5C15.5 37.0147 17.5147 35 20 35C22.4853 35 24.5 37.0147 24.5 39.5Z" fill="white"/>
<path d="M40 39.5C40 41.9853 37.9853 44 35.5 44C33.0147 44 31 41.9853 31 39.5C31 37.0147 33.0147 35 35.5 35C37.9853 35 40 37.0147 40 39.5Z" fill="white"/>
</g>
<g opacity="0.84">
<path d="M57.992 33.2239C56.816 33.2239 55.7707 33.0092 54.856 32.5799C53.96 32.1319 53.26 31.5159 52.756 30.7319C52.252 29.9292 52 29.0146 52 27.9879V24.3759C52 23.2746 52.252 22.3039 52.756 21.4639C53.26 20.6239 53.96 19.9706 54.856 19.5039C55.7707 19.0372 56.816 18.8039 57.992 18.8039H60.232C62.024 18.8039 63.4613 19.3079 64.544 20.3159C65.6267 21.3239 66.168 22.6679 66.168 24.3479V27.3159H55.808V27.9879C55.808 28.6039 56.004 29.0986 56.396 29.4719C56.788 29.8452 57.32 30.0319 57.992 30.0319H60.176C60.8293 30.0319 61.352 29.8919 61.744 29.6119C62.1547 29.3132 62.36 28.9306 62.36 28.4639H66.112C66.112 29.3972 65.86 30.2279 65.356 30.9559C64.852 31.6839 64.1427 32.2439 63.228 32.6359C62.332 33.0279 61.296 33.2239 60.12 33.2239H57.992ZM62.416 24.5719V24.3479C62.416 23.6199 62.22 23.0412 61.828 22.6119C61.436 22.1639 60.9133 21.9399 60.26 21.9399H57.992C57.32 21.9399 56.7787 22.1732 56.368 22.6399C55.9573 23.1066 55.752 23.7226 55.752 24.4879V24.5719H62.416Z" fill="white"/>
<path d="M68.1875 19.0279H71.7155V20.7079C72.1262 20.1292 72.6582 19.6719 73.3115 19.3359C73.9648 18.9812 74.6182 18.8039 75.2715 18.8039H76.9515C78.4448 18.8039 79.6395 19.2706 80.5355 20.2039C81.4502 21.1372 81.9075 22.3692 81.9075 23.8999V32.9999H78.0995V24.0399C78.0995 23.4612 77.9408 22.9946 77.6235 22.6399C77.3248 22.2852 76.9328 22.1079 76.4475 22.1079H74.7675C74.1142 22.1079 73.5262 22.3506 73.0035 22.8359C72.4995 23.3026 72.1635 23.9186 71.9955 24.6839V32.9999H68.1875V19.0279Z" fill="white"/>
<path d="M84.4166 19.0279H87.9446V20.7079C88.3552 20.1292 88.8872 19.6719 89.5406 19.3359C90.1939 18.9812 90.8472 18.8039 91.5006 18.8039H93.1806C94.6739 18.8039 95.8686 19.2706 96.7646 20.2039C97.6792 21.1372 98.1366 22.3692 98.1366 23.8999V32.9999H94.3286V24.0399C94.3286 23.4612 94.1699 22.9946 93.8526 22.6399C93.5539 22.2852 93.1619 22.1079 92.6766 22.1079H90.9966C90.3432 22.1079 89.7552 22.3506 89.2326 22.8359C88.7286 23.3026 88.3926 23.9186 88.2246 24.6839V32.9999H84.4166V19.0279Z" fill="white"/>
<path d="M103.474 32.9999C102.652 32.9999 101.99 32.7666 101.486 32.2999C101 31.8146 100.758 31.1799 100.758 30.3959V13.3999H104.622V29.6399H115.262V32.9999H103.474Z" fill="white"/>
<path d="M120.971 33.2239C119.515 33.2239 118.339 32.8599 117.443 32.1319C116.547 31.4039 116.099 30.4426 116.099 29.2479V28.2119C116.099 27.0359 116.565 26.0932 117.499 25.3839C118.432 24.6559 119.664 24.2919 121.195 24.2919H122.903C123.388 24.2919 123.911 24.3572 124.471 24.4879C125.031 24.6186 125.544 24.7959 126.011 25.0199V23.5639C126.011 23.0972 125.852 22.7239 125.535 22.4439C125.236 22.1452 124.835 21.9959 124.331 21.9959H121.923C121.4 21.9959 120.98 22.1172 120.663 22.3599C120.345 22.6026 120.187 22.9292 120.187 23.3399H116.491C116.491 21.9772 116.985 20.8852 117.975 20.0639C118.983 19.2239 120.299 18.8039 121.923 18.8039H124.331C125.973 18.8039 127.299 19.2426 128.307 20.1199C129.315 20.9786 129.819 22.1266 129.819 23.5639V32.9999H126.291V31.3199C125.843 31.8986 125.292 32.3652 124.639 32.7199C123.985 33.0559 123.341 33.2239 122.707 33.2239H120.971ZM122.987 30.3119C123.677 30.3119 124.293 30.1346 124.835 29.7799C125.376 29.4252 125.768 28.9492 126.011 28.3519V27.8759C125.712 27.6519 125.292 27.4746 124.751 27.3439C124.228 27.2132 123.668 27.1479 123.071 27.1479H121.307C120.859 27.1479 120.495 27.2599 120.215 27.4839C119.935 27.7079 119.795 28.0066 119.795 28.3799V29.1079C119.795 29.4626 119.944 29.7519 120.243 29.9759C120.56 30.1999 120.971 30.3119 121.475 30.3119H122.987Z" fill="white"/>
<path d="M139.086 33.2239C138.507 33.2239 137.919 33.0372 137.322 32.6639C136.725 32.2906 136.239 31.8052 135.866 31.2079V32.9999H132.338V13.3999H136.146V20.1199C136.519 19.7279 136.977 19.4106 137.518 19.1679C138.078 18.9252 138.61 18.8039 139.114 18.8039H141.074C142.157 18.8039 143.109 19.0372 143.93 19.5039C144.77 19.9519 145.414 20.5959 145.862 21.4359C146.329 22.2759 146.562 23.2466 146.562 24.3479V27.5399C146.562 28.6599 146.329 29.6492 145.862 30.5079C145.395 31.3666 144.742 32.0386 143.902 32.5239C143.062 32.9906 142.101 33.2239 141.018 33.2239H139.086ZM140.57 29.8919C141.223 29.8919 141.746 29.6492 142.138 29.1639C142.549 28.6786 142.754 28.0439 142.754 27.2599V24.6279C142.754 23.8812 142.558 23.2839 142.166 22.8359C141.774 22.3692 141.261 22.1359 140.626 22.1359H138.89C138.143 22.1359 137.518 22.3972 137.014 22.9199C136.51 23.4426 136.221 24.1332 136.146 24.9919V27.3999C136.277 28.1466 136.575 28.7532 137.042 29.2199C137.527 29.6679 138.097 29.8919 138.75 29.8919H140.57Z" fill="white"/>
<path d="M153.633 33.2239C151.934 33.2239 150.571 32.7759 149.545 31.8799C148.518 30.9839 148.005 29.8079 148.005 28.3519H151.757C151.757 28.8559 151.925 29.2666 152.261 29.5839C152.615 29.8826 153.073 30.0319 153.633 30.0319H156.153C157.273 30.0319 157.833 29.7239 157.833 29.1079V28.6319C157.833 28.4452 157.739 28.2772 157.553 28.1279C157.366 27.9599 157.114 27.8479 156.797 27.7919L151.953 26.9519C150.814 26.7652 149.909 26.3639 149.237 25.7479C148.583 25.1132 148.257 24.3759 148.257 23.5359V22.6119C148.257 21.4172 148.742 20.4839 149.713 19.8119C150.702 19.1399 152.074 18.8039 153.829 18.8039H156.013C157.581 18.8039 158.841 19.2239 159.793 20.0639C160.763 20.8852 161.249 21.9772 161.249 23.3399H157.497C157.497 22.9292 157.357 22.6026 157.077 22.3599C156.815 22.1172 156.461 21.9959 156.013 21.9959H153.885C152.671 21.9959 152.065 22.2759 152.065 22.8359V23.2839C152.065 23.4892 152.139 23.6666 152.289 23.8159C152.457 23.9466 152.69 24.0399 152.989 24.0959L158.085 25.0199C159.149 25.2066 160.007 25.6079 160.661 26.2239C161.314 26.8212 161.641 27.5026 161.641 28.2679V29.2759C161.641 30.4892 161.137 31.4506 160.129 32.1599C159.139 32.8692 157.814 33.2239 156.153 33.2239H153.633Z" fill="white"/>
</g>
</svg>
