<svg width="24" height="24" viewBox="0 0 24 24" fill="none" xmlns="http://www.w3.org/2000/svg">
<path d="M15.3785 3C15.144 3.41641 14.9334 3.84718 14.742 4.28752C12.9232 4.0147 11.0709 4.0147 9.24729 4.28752C9.06063 3.84718 8.84523 3.41641 8.61072 3C6.902 3.29197 5.23636 3.8041 3.65689 4.52683C0.526643 9.16476 -0.320532 13.683 0.100668 18.1391C1.93381 19.4936 3.98715 20.5274 6.17448 21.1879C6.66747 20.5274 7.10303 19.8238 7.47636 19.0915C6.76798 18.8283 6.08354 18.498 5.42782 18.1151C5.60012 17.9907 5.76765 17.8615 5.93038 17.737C9.77378 19.5463 14.2251 19.5463 18.0732 17.737C18.236 17.871 18.4035 18.0003 18.5758 18.1151C17.9201 18.5028 17.2356 18.8283 16.5225 19.0963C16.8958 19.8286 17.3313 20.5322 17.8244 21.1927C20.0116 20.5322 22.0649 19.5032 23.8982 18.1487C24.3959 12.9794 23.0462 8.49945 20.3323 4.53162C18.7577 3.80889 17.092 3.29675 15.3833 3.00957L15.3785 3ZM8.01242 15.3965C6.83022 15.3965 5.84902 14.3244 5.84902 12.9986C5.84902 11.6728 6.79192 10.5959 8.00765 10.5959C9.22338 10.5959 10.1902 11.6776 10.171 12.9986C10.1519 14.3196 9.21858 15.3965 8.01242 15.3965ZM15.9864 15.3965C14.7994 15.3965 13.8278 14.3244 13.8278 12.9986C13.8278 11.6728 14.7707 10.5959 15.9864 10.5959C17.2021 10.5959 18.1642 11.6776 18.145 12.9986C18.1259 14.3196 17.1926 15.3965 15.9864 15.3965Z" fill="#A4A7AE"/>
</svg>
